<svg version="1.2" xmlns="http://www.w3.org/2000/svg" viewBox="0 0 181 177" width="181" height="177">
	<title>512-ai</title>
	<style>
		.s0 { fill: #fef8ea } 
		.s1 { fill: #4a3105 } 
	</style>
	<g id="_Artboards_">
	</g>
	<g id="Background">
		<path id="&lt;Path&gt;" class="s0" d="m1160.6 924.2h-793.4v-595h793.4z"/>
	</g>
	<g id="Corner Frames">
		<path id="&lt;Path&gt;" class="s1" d="m126.8 66.5c5.6 2.6 8.8 11.8 1.5 14.8-5.2 2.1-11.4-2.3-9-8 2.2-5.3 11.3-0.9 8 4.3q-0.1 0-0.1 0.1c-0.5 0.6-1.5 0.9-2.1 0.8-1-0.3-1.5-1.6-1.1-2.9 0.2-0.9 0.9-1.5 1.7-1.8-0.7-1-2.6-1-3.9 0.1-3 2.7 0.3 6.8 3.8 6.1 5.3-1.1 7.4-11.4-0.2-12.4-3.3-0.4-6.7 2.1-9.3 3.8-3 1.9-6.6 4.3-9.4 6.4-2 1.5-3.2 0.2-1.3-1.4 4.9-4.3 14.6-13 21.4-9.9z"/>
		<path id="&lt;Path&gt;" class="s1" d="m113.2 52.9c-2.6-5.6-11.8-8.7-14.7-1.5-2.2 5.3 2.2 11.4 7.9 9 5.3-2.2 0.9-11.3-4.3-7.9q0 0 0 0.1c-0.7 0.5-1 1.4-0.8 2 0.2 1 1.5 1.5 2.8 1.1 0.9-0.2 1.5-0.9 1.8-1.6 1 0.6 1.1 2.5-0.1 3.8-2.7 3-6.8-0.2-6.1-3.8 1.1-5.3 11.4-7.4 12.4 0.2 0.4 3.3-2.1 6.7-3.8 9.3-1.9 3.1-4.2 6.6-6.4 9.4-1.5 2-0.2 3.2 1.4 1.3 4.3-4.9 13-14.6 9.9-21.4z"/>
		<g id="&lt;Group&gt;">
			<path id="&lt;Path&gt;" class="s1" d="m174 174.4v-45.9l-5.6 3.5c2.5 4.2 3.6 10.2 3.9 18.2 0.2 5.9 0.3 22.6 0.3 24.3 0 1.7 1.4 1.8 1.4-0.1z"/>
		</g>
		<g id="&lt;Group&gt;">
			<path id="&lt;Path&gt;" class="s1" d="m148.5 125.9c-1.2 10.6 8.4 14.1 14.1 21.1 6.5 8.1 7.5 17.9 7.6 28.1 0 0.9-1.3 1-1.3 0-0.1-10.6-3.3-21.3-10.7-29.3-3.1-3.5-7.2-5.7-10.1-9.4-2.5-3.1-3.4-7-2.9-10.9 0.1-0.9 3.4-0.5 3.3 0.4z"/>
		</g>
		<path id="&lt;Path&gt;" class="s1" d="m131.6 49.2c0.7 0 1.4-0.2 1.7-0.5 5.6-5.4 14.6-12.6 22.8-12.8 4.5-0.2 10.8 1.1 12.3 6.1 0.4 1.3 0.7 2.6 0.6 3.9 0-0.2-0.5 4.7-1.6 2.5-0.6-1.2-4.5-0.1-4.1 0.7 1.4 2.9 7.9 2.4 9.1-0.6 2.4-5.9-1.3-11.2-6.8-13.3-9.3-3.7-19.7 0.8-28 6.7 5.9-8.4 10.3-18.8 6.7-28.1-2.2-5.5-7.4-9.1-13.4-6.8-3 1.2-3.4 7.7-0.6 9.2 0.9 0.4 1.9-3.5 0.7-4.2-2.1-1 2.7-1.6 2.5-1.6 1.3-0.1 2.7 0.2 3.9 0.6 5 1.6 6.3 7.9 6.2 12.4-0.3 8.1-7.5 17.1-12.9 22.8-0.2 0.3-0.4 0.9-0.5 1.7-0.2 0.8 0.3 1.5 1.4 1.3z"/>
		<path id="&lt;Path&gt;" class="s1" d="m146.8 34.3c0.7 0.1 1.3 0 1.6-0.3 5-4.6 16.4-11.2 22.4-5.3 2.1 2.3 4.1 0.6 3.4-0.8-1.2-2.5-2.7-3.2-5-4-4.2-1.7-12.4 1.3-18.7 5 3.7-6.3 6.7-14.5 5.1-18.7-0.9-2.3-1.6-3.7-4-5-1.5-0.7-3.2 1.3-0.8 3.4 5.8 6.1-0.8 17.4-5.4 22.4-0.3 0.3-0.3 1-0.3 1.7 0.2 1.1 0.8 1.6 1.7 1.6z"/>
		<path id="&lt;Compound Path&gt;" class="s1" d="m158.2 22.5c0.7 0 1.4-0.1 1.7-0.4 2.8-2.2 7.7-2.8 11.2-2.9 0.6-0.1 2.2-0.1 2.5-0.9 1-3 1.3-7.1-0.9-9.6-0.2-0.4-0.9-0.5-1.5-0.4 0-0.7-0.1-1.3-0.4-1.6-2.5-2.1-6.7-1.8-9.7-0.8-0.7 0.2-0.8 1.9-0.8 2.5-0.1 3.4-0.7 8.4-3 11.2-0.2 0.2-0.3 0.9-0.4 1.6 0 0.8 0.4 1.5 1.3 1.3z"/>
		<path id="&lt;Compound Path&gt;" fill-rule="evenodd" class="s1" d="m153.2 99.6c-0.2 3.8 0.5 7.6 2.5 11.2q2-1 4.1-1.5c2.3-0.5 8.1 0.1 7.7 3.7-0.3 2.6-3.6 4-6 4-3.3 0-5.3-1.1-7.1-3-1.8 2.1-2.6 4.7-2.2 7.4 0.7 4.3 5 7.8 9.1 5.3 0.8-0.5 3.4-0.4 1.8 0.6-3.4 2-7.1 2.6-10.5 0.3-4-2.7-4.1-8.1-1.9-11.9 0.6-1.3 1.5-2.3 2.5-3.2q-0.5-0.6-0.9-1.3c-2.7-3.8-3.9-8-3.9-12-2.6-0.5-5.3-1.3-7.6-2.4-7.1-3.3-9.5-10.4-7.8-17.7 1.4-6.2 6.6-9.5 12.9-8.8 2.8 0.3 5.2 1.1 7.1 3.3 2.1 2.6 1.7 6.6-1.1 8.4-0.9 0.6-4.8-0.1-3.5-0.9 2.5-1.6 1.9-4.8 0.6-7.1-1.9-3.1-6.3-2.3-8.8-0.6-3.7 2.6-4 9.4-3.4 13.4 1 5.9 6.3 9.3 11.8 10.6 0.7-6.4 4.5-12.4 10.6-16.4 0.6-0.5 3.4-1 2.6-0.2-4.3 4.9-7.6 10.9-8.5 17 5.3-0.2 9.7-2.9 12.7-7.5 3.5-5.1 4.9-11.4 4.4-17.5-0.5-6.4-4.7-11.6-9.4-15.5-12.3-10.2-28.9-6.6-39.7 3.7-0.3 0.4-1 0.5-1.8 0.4-0.8 0-1.6-0.5-1.5-1.5 0-0.7 0.1-1.4 0.4-1.7 10.4-10.8 14-27.5 3.8-39.8-3.9-4.7-9.2-8.9-15.5-9.4-6.1-0.5-12.5 0.9-17.6 4.4-3.3 2.2-5.7 5.2-6.8 8.7 5.5-1.6 10.7-4.7 15-8.6 0.9-0.8 0.4 2.2-0.1 2.9-4 5.9-9.5 9.9-15.6 11.3q0.1 1 0.3 2c1 5.8 4.4 11.9 10.8 12.9 4 0.7 10.7 0.3 13.4-3.4 1.7-2.4 2.4-6.9-0.7-8.7-2.3-1.4-5.4-2-7.1 0.6-0.8 1.3-1.4-2.7-0.9-3.6 1.8-2.7 5.9-3.2 8.4-1 2.2 1.8 3 4.2 3.4 7.1 0.7 6.3-2.6 11.4-8.8 12.9-7.3 1.7-14.5-0.8-17.7-7.8-1.5-3.2-2.5-6.9-2.8-10.6-5.4 0.8-11.1-0.3-16.3-4q-0.8-0.5-1.5-1.1c-0.9 1.1-2.1 2.1-3.4 2.9-4.3 2.4-10.3 2.3-13.3-2.2-2.6-3.8-1.8-7.8 0.4-11.6 1.1-1.9 1.1 1.1 0.6 1.9-2.7 4.7 1.2 9.4 5.9 10.2 3 0.4 5.9-0.5 8.2-2.5-2.1-2-3.3-4.2-3.3-7.9 0-2.7 1.5-6.3 4.5-6.6 3.9-0.5 4.6 6 4 8.5-0.3 1.6-0.9 3.1-1.6 4.5 5.1 3 10.7 3.5 16.1 2.4q0.3-2.2 1.1-4.3c3.1-7.7 11.2-12.4 19.3-13.3 9-1.1 16.9 2.6 22.4 9.8 9.3 12.2 8.8 28 1.3 40.4 12.3-7.6 28.2-8 40.3 1.3 7.2 5.5 10.9 13.3 9.9 22.4-0.9 8.1-5.6 16.1-13.3 19.2-2.5 1-5.3 1.5-8 1.5zm-91.7-89.2c-5.2-0.5-1.8 6.9 0.4 8.5q0.3 0.2 0.5 0.3c1.9-3.3 3.2-8.4-0.9-8.8zm95.1 101.9q0.2 0.2 0.4 0.4c1.4 2 8 5.1 7.6 0.4-0.4-3.7-5-2.5-8-0.8z"/>
		<g id="&lt;Group&gt;">
			<path id="&lt;Path&gt;" class="s1" d="m5 5.5h45.9l-3.5 5.6c-4.2-2.6-10.2-3.6-18.1-3.9-6-0.3-22.7-0.3-24.3-0.3-1.7 0-1.9-1.4 0-1.4z"/>
		</g>
		<g id="&lt;Group&gt;">
			<path id="&lt;Path&gt;" class="s1" d="m53.5 31c-10.5 1.2-14.1-8.5-21.1-14.1-8-6.5-17.9-7.6-28-7.6-0.9 0-1.1 1.3 0 1.3 10.5 0 21.3 3.3 29.3 10.6 3.4 3.2 5.7 7.2 9.4 10.2 3.1 2.5 7 3.3 10.8 2.9 1-0.1 0.6-3.4-0.4-3.3z"/>
		</g>
		<g id="&lt;Group&gt;">
			<path id="&lt;Compound Path&gt;" class="s1" d="m143.8-165.3q-0.4 0.3-0.7 0-0.2-0.3-0.1-0.6 0-0.2 0.4-0.8 2.7-4.9 4-9.4 1.9-6.1 2-10.4 0.1-4-1.2-5.3-0.8-0.8-1.8-0.8-1 0-1.9 0.9-0.2 0.2-0.5 0.8-0.3 0.5-0.5 0.7-0.2 0.2-0.8 0.5-0.6 0.2-0.7 0.1-0.3-0.3 0.2-1.2 0.4-1.2 1.5-2.3 0.7-0.7 1.6-0.8 1-0.2 2.2 0.3 1.1 0.3 1.8 1 1.5 1.5 2.2 4.2 0.6 2.8 0 6.3-0.7 4.9-3.6 9.5-1.6 2.5-2.9 5.1-1.1 2-1.2 2.2zm18.6-9.1q-0.2 0.3-1.8 0.8-2.3 0.8-4.1 1.7-1.5 0.7-3.7 2.4-1.1 0.8-4.8 3.8-0.7 0.7-1.5 1.3-0.6 0.4-0.7 0.3-0.2-0.3 0.8-1.3 0.3-0.3 0.7-0.7 0.4-0.4 0.6-0.6l0.2-0.1q2.8-2.8 4.4-4.9 1.4-1.8 1.2-2-0.3-0.2-0.9 0.4 0.1 0-0.6 0.8-0.9 0.9-1.9 2-0.6 0.7-1.9 2.1-1.1 1.4-1.7 2-2.4 2.4-2.5 2.2h-0.1q-0.3-0.4 0.6-1.5 1.4-1.6 2.8-3.2 1.8-2.1 2.9-4.3 0.4-0.7 2.5-5.8 1.5-3.4 1.7-3.6 0.3-0.3 0.7-0.3 0.5 0 0.7 0.2 0.2 0.2 0.3 0.9 0.2 0.6 0.3 0.8 0.1 0.1 0.6 0 0.7-0.1 1.4-0.3 1.9-0.3 2.3 0.1 0.3 0.3 0.3 0.8 0 0.2-0.1 1 0 0.1-0.2 1.8-0.1 0.6 0 0.7 0.1 0.1 0.8 0.2 0.7 0.2 0.8 0.3 0.4 0.4 0.4 1-0.1 0.6-0.5 1zm11.1 11.4q-0.6 0.6-1.3 1.1-0.7 0.5-0.7 0.5 0 0-0.1 0.2-0.2 0.1-0.3 0.2-0.9 0.9-1.3 0.5-0.6-0.6 0.5-1.7 0.6-0.6 1.7-1.2 1.1-0.6 1.3-0.9 0.4-0.4 0.3-1.4-0.2-0.9-0.7-1.4-1.8-1.9-6.2-1.8-4.7 0-11.3 2.1-2.4 0.7-4.8 2-2.1 1.1-3.5 2-0.4 0.3-0.6 0.4-0.3 0.1-0.7-0.2 0.1-0.2 0.2-0.4 0.1-0.1 0.9-0.5 1.1-0.7 1.9-1.3 1.1-0.9 4.4-3.1 6.3-3.7 11.6-3.9 5.1-0.2 8.1 2.8 1.5 1.5 1.7 3.2 0.1 1.7-1.1 2.8z"/>
			<path id="&lt;Compound Path&gt;" class="s1" d="m158.7-183.7q-0.4 0.4-0.7 0.1-0.4-0.3-1-1.6-0.7-1.5-1.5-3.1-2.7-5.4-3.3-7.2-0.9-2.8 0.2-3.9 1.2-1.2 2.9 0.5 0.7 0.7 1.4 3.4 0.5 2.2 1.3 7.4 0.1 0.4 0.6 3.1 0.2 1.2 0.1 1.3zm2.3 0.2q-0.4 0.4-0.8 0-0.2-0.2-0.4-2-0.3-2.3-0.4-5.5-0.1-2.1-0.2-4.2 0-1.6 0.7-2.3 0.6-0.6 1.4-0.6 0.8 0 1.4 0.6 0.9 1 0.9 2.6-0.1 0.7-0.7 3.5-1.6 7.6-1.9 7.9zm10-4.2q-0.2 0.3-1.6 1.1-1.6 1-3.2 1.9-1.9 1.1-2.9 2-0.6 0.5-0.8 0.5-0.2 0.2-0.5 0-0.2-0.2 0-0.5 0 0 0.4-0.5 0.9-1.4 2.9-4.5 1.5-2.3 2.3-3.1 1-1 2-1.1 1.1 0 1.9 0.8 0.6 0.6 0.5 1.6-0.1 1-1 1.8zm7.3 9q-0.7 0.6-2.5 0.5-0.9-0.1-4.5-0.7-6.9-1.1-7.5-1.7-0.3-0.3 0-0.8l0.7-0.3q2.3-0.1 5.1-0.3 3-0.2 3.5-0.2 4.1-0.1 5.6 1.3 0.9 0.9-0.4 2.2zm1.5 7.2q-0.8 0.8-2.2 0.8-1.4-0.1-3.1-1.1-9.7-5.6-10.3-6.3-0.7-0.7-0.3-1.1 0.3-0.3 1.7 0.1 0.5 0.1 3.8 1.1 6.2 1.8 6.3 1.9 2.7 0.9 3.9 2 1.3 1.4 0.2 2.6z"/>
		</g>
		<path id="&lt;Compound Path&gt;" fill-rule="evenodd" class="s1" d="m154-158.2q0-1.2 0.2-1.9 0.3-0.7 0.9-1.3 0.6-0.6 1.4-0.9 0.8-0.4 1.7-0.4 0.9 0 1.7 0.3 0.8 0.3 1.3 0.9 0.6 0.5 0.7 1.3 0.1 0.8-0.4 1.2-0.3 0.3-0.7 0.4-0.4 0-0.7-0.3-0.2-0.3-0.2-0.8 0.2 0.3 0.2 0.4 0.2 0.1 0.4 0.1 0.3 0 0.5-0.2 0.3-0.3 0.3-0.8-0.1-0.5-0.4-0.8-0.5-0.5-1-0.5-0.6 0-1.1 0.5-0.6 0.6-0.5 1.4 0 0.9 0.7 2.6 0.7 1.5 0.7 2.5-0.1 1-0.8 1.8-0.5 0.5-1.1 0.5-0.6 0.1-1.3-0.3-0.5 2.1-2.1 3.7-1 1-2.3 1.6-1.3 0.7-2.7 0.9-1.4 0.2-3 0-1.3-0.2-2.6-0.9-1.3-0.7-2.3-1.7-0.6-0.5-0.9-1.1l0.4-0.3q0.4 0.6 0.7 0.9 1.4 1.4 3.3 1.9 1.8 0.5 3.6 0.1 1.9-0.4 3.2-1.7 1.1-1.2 1.5-2.6 0.5-1.5 0.1-2.9-0.4-1.4-1.4-2.4-0.9-0.9-2-1.3-1-0.3-2.1-0.1-1 0.2-1.8 0.9-0.9 0.9-0.9 2.2 0 1.2 0.9 2.1 0.6 0.6 1.3 0.7 0.7 0.1 1.2-0.3 0.3-0.3 0.3-0.8 0-0.4-0.4-0.8-0.2-0.2-0.5-0.3 1-0.9 1.6-0.2 0.5 0.4 0.4 1.1-0.1 0.7-0.7 1.2-0.7 0.8-1.8 0.7-1 0-1.9-0.9-0.8-0.8-1.1-1.9-0.2-1.1 0.1-2.2 0.3-1.1 1.1-1.9 1-1 2.6-1.3 1.5-0.2 3 0.3 1.6 0.5 2.7 1.6zm2.6 5q1 0.6 1.8-0.2 0.5-0.5 0.5-1.3 0-0.8-0.6-2.1-0.6-1.3-0.7-1.8-0.1-0.5-0.1-1.1 0.2-0.9 0.9-1.7-0.8 0.2-1.2 0.6-0.8 0.8-1 2.3 0 0.6 0.3 2.6 0.1 0.6 0.1 1.4 0.1 0.8 0 1.3z"/>
		<path id="&lt;Compound Path&gt;" fill-rule="evenodd" class="s1" d="m141-170.2q0.5 1.6 0.3 3.1-0.3 1.5-1.3 2.5-0.8 0.9-1.9 1.2-1.1 0.3-2.2 0-1.1-0.2-1.9-1-0.9-0.9-0.9-1.9-0.1-1.1 0.6-1.9 0.6-0.5 1.3-0.6 0.7-0.1 1.1 0.3 0.6 0.7-0.2 1.7-0.2-0.3-0.3-0.5-0.4-0.4-0.8-0.4-0.5 0-0.8 0.3-0.5 0.5-0.4 1.2 0.1 0.6 0.8 1.3 0.9 0.9 2.1 0.9 1.2 0 2.2-1 0.7-0.7 0.9-1.7 0.2-1.1-0.1-2.2-0.4-1-1.3-1.9-1.1-1.1-2.5-1.4-1.4-0.4-2.8 0-1.4 0.5-2.6 1.6-1.3 1.3-1.7 3.1-0.4 1.9 0.1 3.7 0.5 1.9 1.9 3.3 0.3 0.3 0.9 0.7l-0.3 0.4q-0.6-0.4-1.1-0.9-1.1-1-1.7-2.3-0.7-1.3-0.9-2.6-0.2-1.6 0-3 0.2-1.4 0.8-2.8 0.7-1.3 1.7-2.3 1.6-1.5 3.7-2-0.4-0.7-0.3-1.3 0-0.6 0.5-1.1 0.7-0.7 1.8-0.8 1 0 2.5 0.6 1.7 0.8 2.6 0.8 0.8 0.1 1.4-0.5 0.5-0.5 0.5-1.1 0-0.5-0.5-1-0.4-0.4-0.8-0.4-0.5 0-0.8 0.3-0.2 0.2-0.2 0.4-0.1 0.3 0.1 0.4 0.1 0.1 0.4 0.3-0.6 0-0.8-0.2-0.3-0.3-0.3-0.7 0.1-0.4 0.3-0.7 0.5-0.5 1.3-0.4 0.7 0.1 1.3 0.6 0.6 0.6 0.9 1.4 0.2 0.8 0.2 1.7 0 0.9-0.3 1.7-0.3 0.8-0.9 1.4-0.6 0.6-1.3 0.8-0.8 0.3-1.9 0.3 1.1 1.1 1.6 2.6zm-5.3-5.2q0.7 0 1.4 0.1 2 0.3 2.6 0.2 1.4-0.1 2.2-0.9 0.4-0.4 0.7-1.2-0.8 0.7-1.7 0.8-0.6 0.1-1.1 0-0.5-0.2-1.8-0.7-1.3-0.6-2.1-0.6-0.8 0-1.3 0.5-0.9 0.8-0.2 1.8 0.5-0.1 1.3 0z"/>
		<path id="&lt;Path&gt;" class="s1" d="m162.8-107.1c4.6-1.3 8.7-4.3 11.3-9.4 6.3-12.3 0.8-30-14.7-30-7.8-0.1-12.8 7.4-11.1 14.8 1.5 6.1 7.8 10.1 12.8 5.9q0.5-0.4 0.9-0.8c1.9-2.2 1.9-5.2 0.1-6.7-1.8-1.6-4.8-1.1-6.6 1-1 1.2-1.5 2.7-1.4 4-1.6-0.2-3.4-1.5-3.6-3.8-0.4-3.7 2-7.3 5.3-8.7 4.4-1.8 10.9-1.4 14.6 1.9 8.7 7.8 1.9 23.1-7.7 26.5-6.2 2.3-13.1 1.7-18.9-1.2 1.9-0.3 3.8-0.8 5.7-1.6 0.5-0.2 1.9-1 1.5-2.5-0.4-1.5-1.7-1.5-2.1-1.3-2.8 1.3-6.3 2.3-9.7 2.3-2.4-1.9-4.3-4.4-5.7-7.3-4.5-9.7 0.9-22.6 6.8-30.8 0.4-0.4 0.6-1.5 0.3-2.6 0-0.4-0.3-1-0.8-1.4-0.4-0.3-0.8-0.5-1.1-0.5-1.2-0.3-2.2 0-2.6 0.3-8.2 5.9-21.1 11.3-30.8 6.8-2.9-1.4-5.4-3.4-7.3-5.7 0-3.4 1-6.9 2.3-9.7 0.2-0.4 0.2-1.7-1.3-2.1-1.5-0.4-2.4 1-2.5 1.5-0.8 1.9-1.3 3.8-1.6 5.7-2.9-5.8-3.5-12.7-1.2-18.9 3.4-9.6 18.7-16.4 26.5-7.7 3.3 3.7 3.7 10.2 1.9 14.6-1.4 3.3-5 5.7-8.7 5.3-2.3-0.2-3.6-2-3.8-3.6 1.3 0.1 2.8-0.4 4-1.4 2.1-1.8 2.6-4.8 1-6.6-1.5-1.8-4.5-1.8-6.7 0.1q-0.4 0.4-0.8 0.9c-4.2 5-0.2 11.3 5.9 12.8 7.4 1.7 14.9-3.3 14.8-11.1 0-15.5-17.8-21-30-14.7-5.1 2.6-8.1 6.7-9.4 11.3-2.2-5.2-5.4-9.9-10.5-12.2-8-3.7-16.9 0.5-18 9.5-0.9 8.1 10.8 13.6 16.2 7.7 6.6-7.2-5.4-13.4-8.3-5.7q0 0 0 0c-0.4 1.4 0.2 2.8 1.4 3.2 1.2 0.4 2.5-0.4 3-1.8 0.3-0.9 0.2-1.7-0.1-2.3 1-0.9 2.4-0.5 2.6 1.5 0.2 1.3-0.6 2.6-1.2 3.5-2.5 4.5-7.5 1.6-9.3-1.6-2.7-4.8 0.6-10.9 4.9-13.2 6.5-3.5 12.5 3.6 14.7 8.7 1.4 3.5 2.8 6.9 3.9 10.5 0.5 5.9 3.1 11.8 7 16.3 0.3 3.8 1.7 7.3 4.5 10.3 4.3 4.5 11.8 5.8 17.7 5.3 2.3-0.2 0.6-1.4-0.8-1.3-6.3 0.6-12.5-1.8-16.1-7.1-0.8-1.2-1.3-2.4-1.6-3.7 10.8 8.1 24.8 6.7 36.2 0.6-6.1 11.4-7.6 25.4 0.6 36.2-1.3-0.3-2.5-0.8-3.7-1.6-5.3-3.6-7.7-9.8-7.1-16.1 0.1-1.4-1.1-3.1-1.3-0.8-0.5 5.9 0.8 13.4 5.3 17.7 3 2.8 6.5 4.2 10.3 4.5 4.5 3.9 10.4 6.5 16.3 7 3.6 1.1 7 2.5 10.5 3.9 5.1 2.2 12.2 8.2 8.7 14.7-2.3 4.3-8.4 7.6-13.2 4.9-3.2-1.8-6.1-6.8-1.6-9.3 0.9-0.6 2.2-1.4 3.5-1.3 2 0.3 2.4 1.7 1.5 2.7-0.6-0.3-1.5-0.4-2.3-0.1-1.4 0.5-2.2 1.8-1.8 3 0.4 1.2 1.8 1.8 3.2 1.4q0 0 0 0c7.6-2.9 1.4-14.9-5.7-8.3-5.9 5.4-0.4 17.1 7.7 16.2 9-1.1 13.2-10 9.5-18-2.4-5.1-7-8.3-12.2-10.5z"/>
		<path id="&lt;Path&gt;" class="s1" d="m174-76.8c0 0 0 48.7 0 51 0 2.3-1.6 2.4-1.6-0.2 0-12.7-1.5-28.1-4-37-2-7.3 0.2-8.6 3.9-14.2 0.6-0.9 1.7-1 1.7 0.4z"/>
		<path id="&lt;Path&gt;" class="s1" d="m59.4-194c0 0-48.7 0-50.9 0-2.3 0-2.4 1.5 0.1 1.5 12.7 0 28.2 1.6 37.1 4.1 7.3 2 8.6-0.2 14.1-3.9 1-0.6 1.1-1.7-0.4-1.7z"/>
		<g id="&lt;Group&gt;">
			<path id="&lt;Compound Path&gt;" class="s1" d="m-234.8-177.5q3.6-1.8 4.8-0.5 0.9 0.8-0.3 3-2.3 4.2-2.8 5.3 1.5 0.2 3-0.7 1.5-0.8 3-1.8 8.8-4.7 11.7-1.8 1 0.9 0.4 2.9-0.8 2-2.9 4.2-4.3 4.3-12.8 4.9l1.2 1.4q1.5 0.9 3.4 1.6 1.1 0.4 2.3 0.8 1.2 0.4 2.9 2.1 2.7 2.8 3.2 5.8 0.5 2.9-1.4 4.7-0.8 0.9-1.6 1.1-0.8 0.3-1.2 0-0.1-0.2-1.4-2.5-1.3-2.4-2.8-3.9-6.3-6.3-16.4-6.1-3.9 0.1-7.6 0.9-2.2 0.6-4.5 1.3-0.9 0.2-1.2-0.1-1.2-1.3 1.3-3.8 0.5-0.5 1.6-1.4 1.2-1 1.8-1.6 2.1-2.1 4.7-5.5 2.6-3.4 3.5-4.2 4.3-4.3 8.1-6.1zm-29.2-20.5q2.8 0.1 4.8 2.1 2.1 2.1 3.3 5.2 1.3 3.1 1.4 3.2 0.2 0.2 0.6 0.3 2.8-9.6 4.4-11.3 2.6-2.5 6.1-3 1.2-0.2 2.1 0.8 2.6 2.6 0.5 7.2-0.6 1.4-2.2 3.9-1.8 2.6-2.5 4-1.4 2.9-1.2 4.9 1.7-1.3 2.3-1.9 0.2-0.2 0.4-0.5 0.3-0.3 0.5-0.5 2.5-2.5 5.5-2.6l0.7 0.7q0.1 2.5-1.6 5.7-1.9 3.5-5.1 6.7-2.4 2.4-5.7 5.1-3.2 2.6-3.7 3.1-1 1-2.2 2.6-1.1 1.7-1.6 2.2-0.7 0.6-2.2 1.3-0.6-0.4-1-0.8-1.4-1.4-0.8-3.4 0.4-1 1.4-2.5 1-1.4 1.1-2 1.2-7.1 0.8-10.6-0.4-3.4-1.7-5.8-1.1-2.1-3.6-4.5-0.6-0.6-2.3-1.6-1.8-0.9-2.4-1.5-1.1-1.2-1.3-2.6-0.2-1.4 0.8-2.4 1.7-1.7 4.4-1.5z"/>
			<path id="&lt;Path&gt;" class="s1" d="m-383.3-195.3h66.5c8.3 0 15.1 3.9 19.4 11 4.4 7.4 9.5 19.1 19.7 18.7 10.2-0.4 13.5-15.1 5.8-20.8-4.9-3.7-10.1 0.4-9.8 5.9 0.2 2.4 1.6 5.6 3.8 6.2 1.8 0.5 3-0.7 3.3-2.3-0.7-0.5-1.4-1.2-1.8-2.2-0.8-2.1 0-4.4 1.7-5.1 1.7-0.7 3.8 0.6 4.6 2.7 4.5 12.3-19.9 13.2-16.9-1.2 1.2-5.9 7.8-7.9 13-7.8 6.1 0 10.8 4.1 12.1 9.9 3.2 14-15.1 20-25.4 15.6-13.9-5.8-13.8-28.2-30.9-28.2h-65.1c-2.8 0-3-2.4 0-2.4z"/>
			<path id="&lt;Path&gt;" class="s1" d="m-307.6-182.1c-4.1-5.2-8.2-8.4-15.4-8.4h-60.3c-3 0-2.8 2.4 0 2.4h58.9c5.7 0 9.4 2.5 12.5 6 1.2 1.3 4 3.7 5.5 4.2 1.1 0.4 1.6 0.2 1.2-0.5-0.3-0.7-1.1-2.1-2.4-3.7z"/>
			<path id="&lt;Path&gt;" class="s1" d="m-234-107.5c5.3 4.2 8.5 8.3 8.5 15.5v60.2c0 3.1-2.4 2.9-2.4 0.1v-58.9c0-5.7-2.5-9.5-6-12.5-1.4-1.2-3.7-4-4.3-5.5-0.4-1.1-0.1-1.6 0.5-1.3 0.7 0.4 2.1 1.2 3.7 2.4z"/>
			<path id="&lt;Path&gt;" class="s1" d="m-220.4-31.5v-66.4c0-8.3-3.9-15.2-11.1-19.5-7.3-4.4-19-9.4-18.6-19.6 0.4-10.2 15-13.6 20.8-5.9 3.7 5-0.5 10.2-6 9.8-2.4-0.1-5.5-1.6-6.1-3.7-0.6-1.9 0.6-3 2.2-3.4 0.5 0.8 1.3 1.4 2.2 1.8 2.2 0.8 4.5 0.1 5.1-1.7 0.7-1.7-0.5-3.8-2.7-4.6-12.2-4.5-13.1 20 1.3 16.9 5.8-1.2 7.8-7.8 7.8-13-0.1-6.1-4.2-10.7-10-12.1-14-3.1-19.9 15.1-15.6 25.5 5.9 13.8 28.3 13.8 28.3 30.8v65.2c0 2.8 2.4 2.9 2.4-0.1z"/>
		</g>
		<g id="&lt;Group&gt;">
			<path id="&lt;Path&gt;" class="s1" d="m-83.8-172.9c-2.4-3.8-3.6-10.1-2.9-14 0.7-4.5 4.3-7.4 7.6-7.6 5-0.5 7 3.2 4.1 5.5-2.3 1.8-3.7 3.6-4.9 5.7-1.2 2-1.8 5.6-1.1 8.7 0.8 3.7-0.9 4.8-2.8 1.7z"/>
			<path id="&lt;Path&gt;" class="s1" d="m-87.2-157.1c-3.8-2.3-10.1-3.5-14-2.9-4.5 0.7-7.3 4.3-7.6 7.6-0.4 5 3.3 7 5.5 4.1 1.9-2.2 3.6-3.7 5.7-4.9 2.1-1.2 5.6-1.8 8.7-1.1 3.7 0.8 4.8-0.9 1.7-2.8z"/>
			<path id="&lt;Path&gt;" class="s1" d="m-39.1-122.5c2.6 2 7.1 3.4 10 3.3 3.3-0.2 5.7-2.6 6.2-5 0.7-3.6-1.8-5.4-3.7-3.5-1.5 1.5-2.9 2.5-4.6 3.2-1.6 0.7-4.2 0.8-6.4 0.1-2.7-0.9-3.6 0.2-1.5 1.9z"/>
			<path id="&lt;Path&gt;" class="s1" d="m-55-130.5c-0.2 3.3-2.1 7.6-4.1 9.7-2.3 2.4-5.7 2.6-7.8 1.4-3.2-1.9-2.9-4.9-0.2-5.1 2.2-0.2 3.8-0.6 5.4-1.4 1.6-0.7 3.5-2.6 4.3-4.7 1.1-2.6 2.6-2.6 2.4 0.1z"/>
			<path id="&lt;Path&gt;" class="s1" d="m-131.4-192.7c-2.1 0.9-5.4 4.2-6.4 6.7-0.7 1.7-1.3 1.6-2.6-0.2-1.9-2.7-5.2-4.2-9.3-5.1-4.2-0.8-36.3-1-40.6-1.1-2.5 0-2.5-2 0.1-2 5.2 0 55.5 0 58.6 0 1.3 0 1.5 1.1 0.2 1.7z"/>
			<path id="&lt;Path&gt;" class="s1" d="m-29.7-92.1c-0.9 2.1-4.2 5.4-6.7 6.4-1.7 0.7-1.6 1.3 0.2 2.6 2.7 1.9 4.2 5.2 5.1 9.4 0.8 4.1 0.9 36.2 1.1 40.5 0 2.5 2 2.5 2 0 0-5.2 0-55.6 0-58.7 0-1.3-1.1-1.4-1.7-0.2z"/>
			<path id="&lt;Path&gt;" class="s1" d="m-137.4-182.3c4.9-11.1 20.9-13.4 31.2-9.7 11.9 4.3 17.2 17.6 23.6 27.5 6.6 10.4 19.5 18.9 32.2 14.7 6.1-2.1 11.2-6.9 13.8-12.7 2.4-5.5 1.6-12.2-0.8-17.6-4.6-10.5-20-16.5-27.8-5.9-6 8.3-0.7 21.1 9.5 22.7 5.1 0.8 8.6-3.8 8.6-8.6 0-2.4-1.5-4.5-3.3-6.1-0.3-0.3-0.8-0.6-1.3-1-0.4 1.4-1.8 2.6-3.7 3.1-2.5 0.5-4.8-0.5-5.2-2.3-0.3-1.6 1.1-3.3 3.2-4q0.3-0.2 0.5-0.2c4.9-1.1 9.8 0.5 12.9 4.4 3.2 4 2.1 10.1-1.7 13.3-8.7 7.4-21.6 3.5-26.1-6.4-2.2-4.9-0.8-10.5 2-14.8 3.1-4.5 8.5-6.9 13.7-7.8 11.2-2 21.7 4.8 24.9 15.5 3.8 12.1-3.2 23.2-14 28.5-11.1 5.6-24.7 3.7-34.3-4-9.6-7.6-13.3-20.3-21.2-29.3-4.5-5.3-11-8.4-18-8.3-6.6 0.1-12.2 3.7-14.4 10-1.7 4.6-1.3 10 1.2 14.3 2.8 5 9.7 7.8 15.2 6 5.7-1.9 6.8-8.7 5.1-13.7-0.9-2.6-2.9-5-5.5-6.1-2.2-1-4.3-0.4-5.2 1.3 0.8 0.8 1.3 2 1.3 3.4 0 2.5-1.5 4.4-3.4 4.4-1.9 0-3.5-1.9-3.5-4.4 0-5.4 5.7-7.2 10.3-7.5 5.4-0.4 9.7 3.4 11.3 8.3 4.1 12.4-10.3 18.7-20.4 16.8-11-2.2-15-14.3-10.7-23.8z"/>
			<path id="&lt;Path&gt;" class="s1" d="m-66-101.5c0.4-6.1 3.8-11.2 9.8-12.9 7.1-2 16 2.4 15.4 10.7-0.3 3.7-2.9 6.3-6.4 7.2-3.1 0.8-7.7 0.7-9.8-2.1-1.3-1.6-1.3-3.7-0.1-4.6 1.2-1 3.2-0.4 4.5 1.2 0.7 0.9 1 2 0.9 3 2.7 2.8 5.3-2 5.7-4.4 0.5-3.5-1.5-6.6-4.3-8.5-3.2-2.1-6.6 0.3-8.4 3.1-1.9 2.9-2.3 6.8-2 10.2 0.6 7.2 8.6 12.1 15.4 10.4 6.8-1.7 11.1-8.7 10.6-15.4-0.4-7-6-12.1-10.6-16.7-4.7-4.9-9.9-9.6-9.1-17 0.6-5.9 5-9.3 10.5-10.3 5.2-1 11.5 0.5 13.6 5.8 1.8 4.6-0.3 9.3-4.6 11.4-3.8 1.9-9.9 0.8-11.7-3.3-1-2-0.5-4.3 1.2-5.1 1.7-0.9 3.8 0.1 4.8 2.2 0.7 1.3 0.7 2.8 0.1 3.9 0.6 0.7 1.2 1.3 1.8 1.1 1.5-0.6 2.4-2 3.2-3.3 1.7-3 0.5-6.6-1.7-9-2.3-2.6-5.9-2.2-8.5-0.4-2.8 2-3.7 5.8-3.6 9 0.1 7.2 7.5 12.5 12 17.2 4.4 4.7 8.2 9.9 7.8 16.7-0.8 13.1-17 18.6-27.7 14-6-2.6-9.1-7.7-8.8-14.1z"/>
		</g>
		<g id="&lt;Group&gt;">
			<path id="&lt;Compound Path&gt;" fill-rule="evenodd" class="s1" d="m338.7 213.4q2.1 2.1 2.9 4.9 0.8 2.8 0.1 5.3-0.1 0.3-0.6 1.4-0.3 0.6-0.2 1 0.8 0.2 1.6-0.7 1.9-1.9 1.6-6.4-0.4-4.4-3.3-7.3-0.4-0.5-1.4-0.7-0.9-0.2-1-0.2-1.1-1.2 0.6-2.9 0.1-0.1 2-1 0-0.1-0.1-0.1-0.2-0.3-0.7-0.3-1.5-0.1-2.7 1-0.3 0.4-0.8 1-0.5 0.6-0.6 0.8-0.4 0.4-0.9 0-1.1-1.2 1-3.3 1.5-1.5 4.1-1.1 2.6 0.4 4.6 2.3 2.9 3 2.7 8.9-0.3 6.6-4.5 11.7 0.9 0.2 1.1-0.1 1.5-1.5 3-4.2 1.9-3.4 2.4-6.6 0.4-2.8-0.1-5-0.2-0.4-0.9-2.1-0.6-1.3-0.6-2.1 0-0.6 0.5-2 0.4-1.1 0.6-1.2 0.8-0.9 2.1 0.4 1.6 1.6 2.1 5 0.3-1.4-0.1-3.7-0.3-1.9-0.1-2.2 0.3-0.3 0.5-0.1 0.1 0 0.2 0.4 2.5 4.8-2.2 13.6 0.7-0.5 1-0.8 0.6-0.6 2.5-4.4 1.8-3.7 3.1-5 0.9-0.9 1.6-0.8 0.3 0.1 0.7 0.3 0.5-0.5 1.1-0.9 0.9-0.6 1.9 0.4 0.5 0.5 0.5 1.4-0.1 0.9-0.5 1.4-0.1 0.1-0.4 0.3-0.1 0.1-0.1 0.4l0.5 0.2q0.4 0.6-1.2 2.1-1.1 1.1-8.3 6-0.1 0.5-0.1 0.7 11.3-5.4 13.5-3.3 0.4 0.5 0.5 1.1 0.2 0.6 0.1 0.7-0.2 0.2-0.9 0.2-2.5-1.2-3.9-1l-0.3 0.3q1 0.5 2.2 0.8 0.8 0.3 0.9 0.3 0.6 0.6 0.6 1.5 0 0.9-0.5 1.4-1.3 1.3-2.7 1-1.2-0.3-2.5-0.7-1.9-0.3-5.4 0.5-4.1 0.9-7.2 2.8l-1.3 1.3q-0.3 0.3-0.5 1.1l0.4 0.2q5.4-3.3 9.8-3.5 4.4-0.2 7.2 2.5 1.8 1.8 1.8 4 0 2.2-1.7 3.9-1.6 1.6-2.9 0.4l-0.1-0.1q0.5-0.4 1-0.8 0.6-0.3 0.6-0.4 1.2-1.2 1.3-2.6 0.1-1.5-0.9-2.5-0.2-0.2-0.3-0.3 0.4 2.9-1.2 4.5l-0.3 0.3q-1.1 0.6-1.6 0.1-0.1-0.1-0.6-1-0.4-1-0.9-1.5-0.2-0.2-0.6-0.4-0.2-0.3-0.4-0.7-0.2-0.4-0.3-0.5-1.3-1.2-4.4-1.1-3.5 0.1-6.4 2.4l0.4 0.5q3.4-1.1 6.1-0.3 2.2 0.8 5 3.5 2.3 2.3 2.3 5.6-0.1 3.3-2.1 5.3-1.6 1.7-4.4 1.5-2.3-0.1-3.1-1-0.3-0.2-0.3-0.7l0.2-0.2q0.4-0.4 1.2-0.1 3.5 1.3 5.1-0.2 1.3-1.3 1.1-2.4-2.6 1.2-3.8 1.3-1.6 0.3-2.6-0.7-1.5-1.5 0.9-3.9 2.8-2.8-0.2-5.7-0.8-0.8-2.8-1.1-2-0.2-2.6 0.4-0.3 0.3-0.2 1.3 0.2 1.7 0.2 2.3-0.2 3.9-2.7 6.4-1.5 1.5-3.4 2.1-1.8 0.6-2.6 0-0.4-0.3-1.7-0.5-1.2-0.2-1.3-0.3-0.6-0.6 0-1.3 0.2-0.2 1-0.7 0.8-0.5 1.2-1 1.2-1.2 1.2-3-0.1-1.5-0.8-2.3-1.6-1.6-3.4-1.8-1.8-0.1-3.1 1.2-0.3 0.3-0.7 0.7-0.3 0.5-0.4 0.6-0.8 0.8-1.5 0-0.7-0.6-0.3-2.9 0.5-2.7 2.5-4.6 3.3-3.3 9.4-2.6 0.2-1.3 0.3-2.7 0.1-1.4-0.3-2.5-0.5-0.7-1.1-1.3-0.9-1-2.5-1-1.5-0.1-2.7 1.2-0.5 0.5-1 1-0.5 0.5-0.5 0.6-0.5 0.4-1.5 0.1-1-0.4-1.9-1.2-2-2 0.7-5.9l-0.5 0.1q-0.4 0.3-0.5 0.4-1.7 1.8-1.7 3.9 0.1 2.1 1.6 3.7 0.4 0.3 0.7 0.5 0.3 0.8 0.1 1-0.6 0.6-2.1-1-1.6-1.6-1.6-4.6 0.1-2.9 1.7-4.6 5.8-5.7 11.7 0.3zm-8.2 17.5q7.9-3.4 11-0.3 1.7 1.7 1.6 4.9 0 3.2-1.8 5-0.2 0.2-1 0.4-0.8 0.1-1.1 0.4l-0.7 0.7 0.6 0.5q0.9 0.9 3.8-2 2.3-2.3 2-5.4-0.2-3.2-2.7-5.7-2.2-2.2-5.5-2.1-3.3 0.1-5.3 2.1-0.3 0.3-0.9 1.5zm2.9 3.8q1.4-0.3 2.1 0.4 0.7 0.7 0.7 2.1 0 1.4-0.8 2.1-1 1-2.3 1.3-1.4 0.2-2.1-0.5-0.9-0.9-1-2 0-1.1 0.8-1.9 1.2-1.3 2.6-1.5zm-5.7 6.4q1.1-0.2 1.9 0.6 1.2 1.2-0.3 2.7-1.7 1.8-3.3 0.2-1.4-1.4-0.4-2.3 1-1 2.1-1.2z"/>
			<path id="&lt;Path&gt;" class="s1" d="m211.1 213.1c7.6 6.4 22.7 13.3 35.2 13.3 10.5 0 25.6-4.2 33.5-8.1 8-3.9 16.3-9.8 24.8-9.8 8.6 0 13.3 2.6 15 3.7-3.7 8.4-0.4 18.2 4.3 21.8 1.8 1.3 2.4 0.5 1.4-1.1-2.9-4.3-6.7-14.7-3.2-22.2-12.7-5.8-25.7-5.2-41 1.1-15.2 6.4-27.1 8.4-36.3 8.4-9.2 0-23.1-2.8-32.9-8.4-0.9-0.5-2 0.4-0.8 1.3z"/>
			<path id="&lt;Path&gt;" class="s1" d="m357.3 359.3c-6.3-7.5-13.2-22.6-13.2-35.1 0-10.5 4.2-25.6 8-33.6 3.9-7.9 9.9-16.3 9.9-24.8 0-8.5-2.6-13.2-3.7-14.9-8.5 3.7-18.3 0.3-21.8-4.4-1.4-1.7-0.5-2.3 1.1-1.3 4.3 2.9 14.7 6.6 22.2 3.2 5.8 12.7 5.2 25.6-1.2 40.9-6.3 15.3-8.3 27.1-8.3 36.4 0 9.2 2.8 23 8.3 32.8 0.6 1-0.3 2.1-1.3 0.8z"/>
		</g>
		<g id="&lt;Group&gt;">
			<g id="&lt;Group&gt;">
				<g id="&lt;Group&gt;">
					<path id="&lt;Path&gt;" class="s1" d="m-30.3 252.4c-6.2-0.1-8.8-6-5.6-11.2 2.7-4.3 8.9-4.9 13.4-3.4 5.7 2 8.2 8.6 6.1 14-2 5.5-8.4 8.6-13.9 8.9-6.2 0.2-12.6-1.5-17.3-5.6-5.9-5-6.8-14.5-5.8-21.6 1.8-14.2 13.4-23 27.1-24.6 2.6-0.3 1 1.5-0.7 1.6-9.7 1.2-18.3 7.2-21.4 16.7-3.3 9.9-2.3 23.4 7.6 29.1 4.4 2.5 10.7 3.8 15.5 1.6 4.5-2.1 6.6-7 5.7-11.8-0.8-4.1-6.1-8.9-10.6-7-5 2.1-4.7 11.5 1.5 11.6 2.4 0-0.5 1.7-1.6 1.7z"/>
				</g>
				<g id="&lt;Group&gt;">
					<path id="&lt;Path&gt;" class="s1" d="m-68.5 214.3c0.1 6.2 6 8.8 11.2 5.5 4.3-2.7 4.9-8.9 3.4-13.3-2-5.7-8.6-8.2-14-6.2-5.5 2-8.6 8.5-8.9 14-0.2 6.1 1.5 12.5 5.6 17.3 5 5.9 14.5 6.7 21.6 5.8 14.2-1.9 23-13.5 24.6-27.2 0.3-2.5-1.5-0.9-1.7 0.7-1.1 9.7-7.2 18.4-16.6 21.5-9.9 3.2-23.4 2.3-29.1-7.6-2.5-4.4-3.8-10.8-1.6-15.5 2.1-4.6 7-6.6 11.8-5.7 4.1 0.8 8.9 6 7 10.5-2.1 5-11.5 4.7-11.6-1.4 0-2.5-1.7 0.4-1.7 1.6z"/>
				</g>
				<path id="&lt;Path&gt;" class="s1" d="m-170.5 208.5c0 0 25.6-1.2 34.7-1.2 9.7 0 20.1 0.5 29.4 2.6 10 2.2 18.7 0.6 26.3-4.1 2.4-1.4 2.1-2.6-0.5-1.8-6.1 2.5-15.9 3.2-25.9 2.5-9.4-0.7-20.9-1.2-29.9-0.8-9.1 0.4-34.1 1.4-34.1 1.4-1.3 0.1-1.5 1.5 0 1.4z"/>
				<path id="&lt;Path&gt;" class="s1" d="m-121.3 214.9c-3.3-1.4-7.2-2.5-17-2.7-9.1-0.2-32.2 0.4-32.2 0.4-1.5 0-1.2-1.3 0-1.4 0 0 22.6-0.5 31.6-0.7 9.1-0.1 19.2 1 24.3 2.7 0.9 0.3 0.5 0.8-1 1.4-1.4 0.6-3.2 1.4-5.7 0.3z"/>
				<path id="&lt;Path&gt;" class="s1" d="m-32.5 306.6c1.4 3.2 2.5 7.2 2.7 16.9 0.2 9.1-0.4 32.2-0.4 32.2 0 1.5 1.3 1.3 1.4 0.1 0 0 0.5-22.6 0.7-31.7 0.1-9-1-19.1-2.7-24.3-0.3-0.9-0.8-0.4-1.4 1-0.6 1.5-1.4 3.3-0.3 5.8z"/>
			</g>
			<g id="&lt;Group&gt;">
				<path id="&lt;Path&gt;" class="s1" d="m-89.7 242.5c3.1-4.3 0.5-9.2-4.6-9.6-4.2-0.4-7.7 3.5-8.9 7.4-1.5 4.9 1.6 10 6.2 11.5 4.6 1.4 9.9-1.4 12.8-5 3.3-4.1 5.3-9.4 5-14.8-0.4-6.6-6.3-12.1-11.4-15.1-10.4-6.2-22-2.8-29.9 5.8-1.4 1.6 0.5 1.4 1.5 0.4 5.6-6.1 13.9-8.8 21.7-6.1 8.1 2.9 16.7 10.6 15.4 20.3-0.5 4.3-2.8 9.4-6.6 11.5-3.7 2-8 0.8-10.6-2.2-2.4-2.7-3-8.8 0.5-10.9 4-2.3 10 2.7 7 7-1.2 1.7 1.4 0.6 1.9-0.2z"/>
			</g>
			<path id="&lt;Path&gt;" class="s1" d="m-25.9 355.6c0 0 1.2-25.6 1.2-34.6 0-9.8-0.5-20.2-2.6-29.4-2.2-10-0.5-18.7 4.1-26.4 1.4-2.4 2.6-2 1.8 0.6-2.5 6.1-3.2 15.9-2.5 25.8 0.7 9.5 1.2 20.9 0.8 30-0.3 9-1.4 34.1-1.4 34.1-0.1 1.2-1.4 1.4-1.4-0.1z"/>
			<g id="&lt;Group&gt;">
				<path id="&lt;Path&gt;" class="s1" d="m-59.9 274.8c4.3-3 9.2-0.4 9.6 4.6 0.4 4.2-3.5 7.7-7.3 8.9-5 1.6-10.1-1.6-11.5-6.2-1.5-4.6 1.3-9.9 4.9-12.8 4.1-3.2 9.4-5.2 14.8-4.9 6.6 0.4 12.1 6.2 15.2 11.4 6.1 10.3 2.7 21.9-5.9 29.8-1.6 1.5-1.4-0.5-0.4-1.4 6.1-5.6 8.9-13.9 6.1-21.8-2.9-8.1-10.6-16.6-20.3-15.4-4.3 0.5-9.4 2.8-11.5 6.6-2 3.7-0.8 8 2.2 10.7 2.8 2.3 8.8 2.9 10.9-0.6 2.4-3.9-2.7-10-7-7-1.7 1.2-0.6-1.3 0.2-1.9z"/>
			</g>
		</g>
		<path id="&lt;Path&gt;" class="s1" d="m-270.5 213.2c-3.7-4-8.7-5-13.8-5.3-5.2-0.4-11.3-0.5-12.8-6.7-0.2-1.1-4-0.4-3.7 0.6 2.5 10.7 16.5 5.5 23.6 9.7q0.3 0.2 0.6 0.4c-3.7-0.9-7.6-0.7-11.4 0.5-6.7 2.3-9.1 9.8-5.7 15.9 0.6 1.1 4.1-0.2 3.7-0.9-2.1-3.8-2.8-11.8 2.5-13.5 5.9-2 11.9-0.1 16.1 4.3q0.2 0.1 0.5 0.2c4.1 8.5 0.3 20.2-5.6 27.3-0.9 1.1 2.7 1 3.4 0.2 7.5-9.1 11.4-23.1 2.6-32.7z"/>
		<path id="&lt;Compound Path&gt;" class="s1" d="m-258.7 240.8q4.2-2.2 8.3-4.7 7.5-4.8 15.3-6 5.7-0.8 10.2 0.2 4.4 1 6.9 3.5 1.1 1.1 1.6 2.9 0.7 2 0.5 3.6-0.2 1.3-1.3 2.5-1.8 1.7-3.7 2.5-1.6 0.7-2.1 0.2-0.1-0.2 0.3-1.1 0.4-1 0.8-1.3 0.3-0.3 1.2-0.8 0.9-0.4 1.2-0.8 1.4-1.4 1.5-3 0-1.7-1.3-3-2.1-2.1-8.6-1.9-7 0.2-16.8 3.2-7.4 2.2-15.2 6.6-1 0.5-1.3 0.6-0.5 0.2-0.9-0.2-0.5-0.6 0-1.1 0.2-0.2 3.4-1.9zm12.9-29q1 0 1.5 0.5 0.3 0.3 0.5 1.4 0.2 1.2 0.4 1.3 0.1 0.2 1.1 0 2.7-0.4 2.9-0.4 1.3-0.2 1.7-0.2 0.7 0.1 1.2 0.6 0.7 0.7 0.1 3.7-0.2 1.1-0.4 2.3-0.1 0.8 0.1 1 0.2 0.2 1.3 0.4 1.1 0.2 1.3 0.5 0.4 0.3 0.4 1.1 0 0.7-0.5 1.2-0.3 0.3-5.9 2.7-8.1 3.4-9.4 4.1-3.5 1.8-6.8 4.6-2.7 2.4-5.3 4.6-1.8 1.5-2.3 0.9h-0.1q-0.3-0.3 3.5-4.1 1.1-1 3.2-2.9 2.4-1.9 3.5-3 1.8-1.6 3.3-3 1.3-1.1 1.2-1.1 1-1 0.7-1.3-0.4-0.4-3.3 1.9-3.3 2.6-7.8 7.1l-0.3 0.3q-0.3 0.3-1 1-0.6 0.7-1 1.1-1.7 1.7-2.1 1.3-0.2-0.2 0.5-1.1 1-1.3 2-2.5 4.9-5.9 6.3-7.7 2.7-3.6 3.8-6 1.4-2.9 2.7-6.6 0.9-2.6 1.3-3 0.6-0.6 1.7-0.7zm-15.6-18.9q2.7 0.2 5.1 2.6 5 5 4.7 13.3-0.4 8.5-6.4 18.6-3.5 5.4-5 7.2-0.9 1.3-2 3-0.8 1.3-1 1.4-0.2 0.3-0.6 0.4-0.4-0.7-0.3-1.2 0.1-0.2 0.6-0.9 1.6-2.3 3.4-5.6 2-3.9 3.2-7.8 3.3-10.7 3.4-18.2 0-7.2-3-10.2-0.7-0.8-2.3-1-1.6-0.3-2.3 0.4-0.4 0.4-1.4 2.2-0.9 1.8-1.9 2.7-1.8 1.8-2.8 0.9-0.7-0.8 0.8-2.3 0.2-0.1 0.4-0.3 0.2-0.2 0.3-0.3 0 0 0.8-1.1 0.8-1.2 1.7-2.1 1.9-1.9 4.6-1.7z"/>
		<path id="&lt;Path&gt;" class="s1" d="m-382 201.2h75.3c0.5 0 2.4 0 2.4 0.8-0.4 5.4 2.4 11.2 7.9 12.7 0.2 0.1 1.2 0.5 0.8 0.9-6.5 7.1-6.3 17.6 1.6 23.6 4.5 3.4 11.6 2.3 14.4-2.7 1.3-2.2 1.4-4.6 0.7-6.7-1 0.9-2.6 1.2-4.2 0.7-2.3-0.6-3.6-2.7-3.1-4.5 0.6-1.8 2.7-2.7 4.8-2.2q0.2 0 0.3 0.1 0 0 0 0 0.6 0.2 1.2 0.5c4.4 2.4 6.6 7.3 4.2 12.2-2.4 5.1-8.8 6.7-14.1 6-6.4-0.7-11.8-5.2-13.8-11.4-1.8-5.6 0.2-11.4 3.9-15.7-5.2-2-8.5-7.1-8.4-12.8h-73c-1.6 0-3.5-1.5-0.9-1.5z"/>
		<path id="&lt;Path&gt;" class="s1" d="m-222.7 274.3c-6.2-1.4-6.3-7.6-6.7-12.7-0.3-5.2-1.3-10.2-5.3-13.8-9.6-8.8-23.6-5-32.7 2.5-0.8 0.7-0.9 4.4 0.2 3.4 7.1-5.8 18.8-9.6 27.3-5.6q0.1 0.3 0.2 0.5c4.4 4.2 6.3 10.2 4.3 16.1-1.7 5.3-9.7 4.6-13.4 2.5-0.8-0.4-2.1 3.1-1 3.7 6.1 3.5 13.6 1.1 15.9-5.7 1.2-3.7 1.4-7.7 0.5-11.3q0.2 0.3 0.4 0.6c4.2 7-1 21 9.7 23.6 1 0.2 1.7-3.5 0.6-3.8z"/>
		<path id="&lt;Path&gt;" class="s1" d="m-222.6 359.2v-75.3c0-0.4-0.1-2.4-0.9-2.3-5.4 0.3-11.2-2.4-12.7-7.9-0.1-0.3-0.5-1.3-0.9-0.9-7.1 6.5-17.6 6.4-23.6-1.5-3.4-4.6-2.3-11.6 2.7-14.5 2.2-1.3 4.6-1.4 6.7-0.6-0.9 1-1.2 2.6-0.7 4.2 0.6 2.2 2.7 3.6 4.5 3 1.8-0.5 2.7-2.6 2.2-4.7q0-0.2-0.1-0.4 0 0 0 0-0.2-0.6-0.5-1.1c-2.4-4.4-7.3-6.6-12.2-4.3-5.1 2.5-6.7 8.9-6 14.2 0.7 6.4 5.3 11.7 11.4 13.7 5.6 1.9 11.4-0.2 15.7-3.9 2 5.3 7.1 8.5 12.8 8.5v72.9c0 1.6 1.6 3.5 1.6 0.9z"/>
		<g id="&lt;Group&gt;">
			<path id="&lt;Path&gt;" class="s1" d="m376.7 26.8q-0.7-0.8-4.5 1.4l-0.9 0.3 0.3-0.7q2.4-4.6 3.1-10.7 0.7-5.3-0.1-6.3-1.1-1.4-2.2-0.5-0.4 0.3-0.5 1.1 1.5 7.1-2.6 15.4-4.4 8.8-14.2 16.8-8.5 6.9-18.3 9.8-8.4 2.5-16.1 1.7-0.8-7.7 1.7-16.1 2.9-9.8 9.8-18.3 8-9.8 16.8-14.2 8.3-4.1 15.4-2.6 0.8-0.1 1.1-0.5 0.9-1.1-0.5-2.2-1-0.8-6.3-0.1-6.1 0.7-10.7 3.1l-0.6 0.3 0.3-0.8q2.1-3.9 1.3-4.6-2.3-1.9-10.3 7.9-1.9 2.3-3.5 5.1-1.5 2.8-1.4 2.6-0.1 0.2-0.4 0.3 0-0.7 0.2-3.7 0.1-1.4-0.2-1.6-0.9-0.8-3.1 1.9-3.2 3.9-5.6 12-2.1 7.7-4.1 15.4-4.4 15.6-1.7 17.8 0 0 0.1 0 0 0.1 0 0.1 2.2 2.7 17.8-1.7 7.7-2 15.4-4.1 8.1-2.4 12.1-5.6 2.6-2.2 1.9-3.1-0.3-0.3-1.7-0.2-3 0.2-3.6 0.2 0-0.3 0.2-0.4-0.2 0.1 2.6-1.4 2.8-1.6 5.1-3.5 9.8-8 7.9-10.3z"/>
			<path id="&lt;Compound Path&gt;" fill-rule="evenodd" class="s1" d="m360.4 16.4q0 0.4 0 0.8c-0.7 12.6-9.4 25.6-23.1 25.8 1.5 6.9 7.8 11.6 15.9 9.8 0.4-0.1 2.8-0.4 2.8 0.6v106.2c0 1.3-4.3 1.5-4.3 0.3v-105.1c-9.1 1-16.9-3-18.7-12.1-9.1-1.8-13.2-9.6-12.1-18.7h-105.2c-1.1 0-0.9-4.3 0.4-4.3h106.2c1 0 0.7 2.3 0.6 2.8-1.8 8.1 2.9 14.3 9.8 15.8 0.2-13.6 13.2-22.3 25.8-23q0.4 0 0.8 0c0.5 0.1 1 0.5 1.1 1.1zm-22.1 22.1c11.5-1.6 19.7-9.6 20.3-21.4-11.9 0.6-19.8 8.8-21.5 20.2q0 0.7-0.1 1.4 0.7-0.1 1.3-0.2z"/>
			<path id="&lt;Path&gt;" class="s1" d="m364.7 60.1c-14.6 3.8-29.8 2.6-41.2-8-10.5-11.4-11.8-26.6-7.9-41.1 0.1-0.6 0-1.9-0.9-1.9h-98.5c-1.5 0-1.7 2.9-0.3 2.9h97.3c-3.4 14.3-2 29 7.3 40.6q0 0.3 0.3 0.6 0.5 0.4 0.9 0.8 0.4 0.4 0.8 0.8 0.3 0.4 0.6 0.3c11.5 9.4 26.3 10.7 40.6 7.4v97.3c0 1.4 2.9 1.1 2.9-0.3v-98.6c0-0.8-1.3-1-1.9-0.8z"/>
		</g>
		<path id="&lt;Compound Path&gt;" fill-rule="evenodd" class="s1" d="m326.5-146.8q0.4-0.4 1.5 0.7 1.9 1.9 2.8 6.1 1 4.4 0.4 10.3-0.6 5.1-3.9 11.1-2.3 4.3-4 6-1.6 1.6-2.2 0.9-0.5-0.4 0.1-3.1 0.7-3.4 0.5-5.9l-0.7-0.7q-1 0.3-2.9 1.6-1.4 0.9-1.9 0.4-0.7-0.8-0.1-1.5 0.2-0.1 0.5-0.4 0.4-0.3 0.6-0.4 9.7-9.8 10.6-17.4 0.3-3.1-1.4-6.9-0.2-0.5 0.1-0.8zm-25.7 11q0.4-0.4 1.7-1.3 1.3-0.9 2-1.6 1.8-1.8 3.6-3.9 1.8-2.1 1.9-2.2 1.5-1.5 3.8-2.5 2.3-1.1 4.9-1.6 1.5-0.3 3-0.5 0.9-0.3 1.8-0.6 1-0.2 1.8 0.6 0.4 0.4 0.4 1.2-0.1 5-0.4 7.5-0.3 1.8-1.5 4.2-1.1 2.4-2.7 4.4-2.2 2.5-8.9 9.3-0.6 0.6-1.1 0.1-0.8-0.8-0.1-2.7 0.5-1.1 0.5-1.3 0.1-0.6-0.2-1-0.7-0.7-2.4-0.3-1.6 0.3-3.4 1.8-1.3 1.1-2.6 2.2-0.8 0.7-1.3 0.2-0.6-0.6-0.4-1.1 0.6-0.7 2.5-3.7 0.9-1.8 1.1-3.6 0.2-1.6-0.1-2-0.4-0.3-2.2 0.3-1.7 0.6-2.1 0.1-0.8-0.8 0.4-2zm17.8-7.4q-3.4 3.3-7.8 9.2-0.5 0.6-0.9 1.2-0.3 0.4-0.2 0.5 0.3 0.3 2.2-1.2 2.3-1.7 5.3-4.7 3.4-3.4 5.1-5.9 1.3-2 0.9-2.4-0.6-0.7-4.6 3.3zm-29.4-3.5q0.2-0.3 2.1-1.4 2.6-1.7 5.2-2.9 5.2-2.5 11.2-2.8 4.9-0.4 9.7 0.4 3.7 0.6 4.1 1 0.4 0.4 0 0.9-0.2 0.1-2.1 0.3-2.6 0.2-4.9 0.8-7.4 1.8-11.8 6.2-1 1-2 2.3-1 1.3-1.2 1.5-0.5 0.5-1 0-0.2-0.3 0.3-1.7 0.4-0.9 0.8-1.8 0.3-0.7 0-0.9-0.4-0.4-4.6 0-4.8 0.5-6.1-0.8-0.4-0.4 0.3-1.1z"/>
		<g id="&lt;Group&gt;">
			<path id="&lt;Path&gt;" class="s1" d="m308.1-180.7c-0.9 8.1 3.3 17.4 11.7 19.9 2.3 0.7-2 1.9-3.2 1.6-9-2.7-18.4-13.5-16.2-22.3 0.2-0.8 0.9-2.1 3.5-2.3 2-0.2 4.5 0.4 4.2 3.1z"/>
		</g>
		<path id="&lt;Path&gt;" class="s1" d="m328-158q-3.2 0.7-6.3 0.9-0.5-0.2-1-0.3c-21.4-2.7-29.9-26.4-44.9-38.5-0.9-0.8-2.9-0.7-3.5 1.9-0.6 2.3-0.4 4.7 0.8 5.8 6.6 6.3 12.1 12.3 18.8 18.3 5.7 5.1 12.4 9.7 20.4 12.4-7.4-1.1-14.5-4.2-20.9-8.8-7.3-5.2-12.9-12.6-19.8-18.3-12.2-10.1-29.9-14.3-44.8-9.6-2.4 0.7-3.8 4.6-2.2 6.5 1.5 1.9 4.5 3.7 8.3 2.4 10.4-3.2 20.1-6.5 27.6-3.2 2.5 1.1 4.8 2.7 7.1 4.4-3.1-0.5-6.4-0.4-9.6 0.5-3.8 1.1-10 4.7-9.8 9.4 0.2 1.8 1.8 3.3 3.3 3.4 1.4 0.1 3.6-0.2 3.6-1.8-0.2-2.4 0.4-4.9 2-6.3 4.4-3.9 9.5-4.5 14.5-1.5q0.2 0.1 0.5 0.2c5.7 5.1 10.6 11 16.8 15.5 12.3 8.8 27.6 11.6 42.2 8.4 2.4-0.5-1.9-1.9-3.1-1.7z"/>
		<path id="&lt;Path&gt;" class="s1" d="m337.6-157.9c14.7 8 30.6 22.3 30.1 40.3-0.1 3.2 1.9 1.1 2-0.9 0.5-19.5-14.2-34.5-30.5-43.5-8.9-16.3-23.9-31-43.5-30.4-2 0-4 2-0.9 1.9 18-0.5 32.3 15.4 40.3 30.2 0.5 0.9 1.2 1.7 2.5 2.4z"/>
		<g id="&lt;Group&gt;">
			<path id="&lt;Path&gt;" class="s1" d="m358-130.9c-8.2 0.9-17.5-3.3-19.9-11.6-0.7-2.4-2 2-1.7 3.1 2.7 9 13.5 18.5 22.3 16.3 0.8-0.2 2.1-1 2.4-3.6 0.1-1.9-0.5-4.4-3.1-4.2z"/>
		</g>
		<path id="&lt;Path&gt;" class="s1" d="m343.5-114.2c-4.6-6.4-7.6-13.5-8.8-20.9 2.7 8.1 7.4 14.8 12.5 20.4 6 6.7 11.9 12.2 18.2 18.8 1.1 1.2 3.5 1.4 5.9 0.8 2.5-0.6 2.6-2.5 1.9-3.5-12.2-15-35.9-23.5-38.6-44.9q-0.1-0.5-0.3-1 0.2-3.1 0.9-6.3c0.2-1.1-1.2-5.4-1.7-3.1-3.2 14.6-0.3 29.9 8.4 42.2 4.5 6.3 10.4 11.2 15.5 16.8q0.1 0.4 0.2 0.6c3 5 2.4 10-1.5 14.4-1.4 1.7-3.9 2.2-6.2 2.1-1.7 0-2 2.1-1.9 3.5 0.1 1.5 1.6 3.1 3.4 3.3 4.7 0.3 8.3-6 9.4-9.8 0.9-3.2 1.1-6.4 0.5-9.6 1.8 2.3 3.3 4.6 4.4 7.1 3.4 7.5 0.1 17.2-3.2 27.6-1.3 3.8 0.5 6.8 2.4 8.3 1.9 1.6 5.8 0.2 6.6-2.2 4.6-14.9 0.4-32.6-9.6-44.8-5.7-6.9-13.1-12.5-18.4-19.8z"/>
		<path id="&lt;Path&gt;" class="s1" d="m342.3-162.3c4.1-3.1 10.9-5.5 16.1-5.4 3.8 0.1 8 1 10.3 4.4 2.4 3.5 0.2 6.4-1.9 6.5-0.1-0.4-0.2-0.8-0.4-1.2-1-1.9-3.1-2.7-4.5-1.9-1.4 0.7-1.7 2.5-1 4.3q0 0.3 0.1 0.5 0.5 0.7 1 1.2 0 0.1 0 0.1c2.3 2.3 5.6 2.4 8.1 0 2.7-2.5 2.7-6.8 1.8-9.9-3-10-15.9-9.7-24.9-6.1 3.6-9 4-21.9-6.1-24.9-3-0.9-7.4-0.9-9.9 1.8-2.4 2.6-2.2 5.9 0 8.1q0.1 0 0.1 0.1 0.5 0.5 1.2 0.9 0.2 0.1 0.6 0.2c1.7 0.7 3.6 0.3 4.3-1 0.8-1.5-0.1-3.5-2-4.6-0.4-0.2-0.8-0.3-1.2-0.4 0.1-2.1 3-4.3 6.5-1.9 3.4 2.3 4.3 6.5 4.4 10.3 0.1 5.2-2.2 12-5.4 16.1-0.4 0.5-0.4 1.6 0.4 2.4 0.8 0.8 2 1 2.4 0.4z"/>
		<g id="&lt;Group&gt;">
			<path id="&lt;Path&gt;" class="s1" d="m-257.4 36.6q-3.1 1.6-6.1 3.5-5.5 3.4-11.3 4.3-4.2 0.6-7.5-0.1-3.1-0.7-5-2.6-0.8-0.7-1.2-2.1-0.5-1.4-0.3-2.6 0.1-1 0.9-1.8 1.4-1.3 2.7-1.9 1.2-0.5 1.5-0.1 0.2 0.1-0.1 0.8-0.4 0.7-0.6 1-0.2 0.2-0.9 0.5-0.7 0.3-0.9 0.6-1.1 1-1.1 2.2 0 1.2 0.9 2.2 1.6 1.6 6.4 1.4 5.1-0.2 12.3-2.3 5.4-1.7 11.2-4.9 0.7-0.4 0.9-0.4 0.4-0.1 0.7 0.2 0.4 0.3 0 0.7-0.2 0.2-2.5 1.4z"/>
			<path id="&lt;Path&gt;" class="s1" d="m-259.7 32.9q-3.5-0.5-7-0.7-6.5-0.4-11.6-3.1-3.8-1.9-6.1-4.4-2.1-2.5-2.6-5-0.1-1.1 0.3-2.5 0.4-1.4 1.3-2.3 0.7-0.7 1.8-0.9 1.9-0.3 3.3 0.1 1.2 0.2 1.3 0.7 0 0.2-0.6 0.6-0.7 0.4-1.1 0.4-0.3 0.1-1 0-0.7-0.2-1.1-0.1-1.4 0.2-2.2 1.2-0.7 1-0.5 2.3 0.4 2.2 4.3 4.8 4.3 2.9 11.4 5.3 5.4 1.9 11.9 2.6 0.8 0.1 1.1 0.2 0.3 0.2 0.4 0.6 0.1 0.5-0.4 0.6-0.3 0-2.9-0.4z"/>
			<path id="&lt;Path&gt;" class="s1" d="m-251.1 39q0-0.6 0.6-0.5 0.4 0.1 0.5 0.5 0.1 0.2 0.2 1 0.8 6.6 2.6 11.9 2.4 7.1 5.3 11.4 2.7 3.9 4.8 4.3 1.4 0.2 2.3-0.5 1-0.7 1.2-2.2 0.1-0.3 0-1.1-0.1-0.7-0.1-1 0.1-0.4 0.4-1 0.4-0.7 0.6-0.7 0.5 0.1 0.8 1.4 0.3 1.4 0 3.2-0.2 1.2-0.9 1.8-0.8 0.9-2.3 1.3-1.3 0.5-2.4 0.3-2.6-0.4-5.1-2.6-2.5-2.3-4.4-6-2.7-5.2-3.1-11.7-0.2-3.5-0.7-6.9-0.4-2.7-0.3-2.9z"/>
			<path id="&lt;Path&gt;" class="s1" d="m-266.8 57.8q-0.8 0.1-1.2-0.4-0.2-0.1-0.3-1-0.2-0.8-0.3-0.9-0.1-0.2-0.9 0-1.9 0.3-2.1 0.3-0.9 0.1-1.2 0.1-0.5 0-0.9-0.4-0.5-0.5-0.1-2.7 0.1-0.9 0.3-1.7 0.1-0.6 0-0.7-0.2-0.2-1-0.3-0.8-0.2-1-0.4-0.2-0.2-0.2-0.8 0-0.5 0.3-0.8 0.2-0.3 4.3-2 6-2.6 6.9-3 2.6-1.4 5.1-3.4 1.9-1.7 3.8-3.4 1.3-1.1 1.7-0.6h0.1q0.2 0.2-2.6 3-0.8 0.7-2.4 2.1-1.7 1.4-2.5 2.1-1.3 1.3-2.4 2.3-1 0.8-0.9 0.7-0.8 0.8-0.5 1 0.2 0.3 2.4-1.4 2.4-1.9 5.8-5.2l0.1-0.2q0.3-0.2 0.8-0.7 0.4-0.5 0.7-0.8 1.3-1.3 1.5-1 0.2 0.2-0.3 0.9-0.7 0.9-1.5 1.8-3.6 4.3-4.6 5.6-2 2.6-2.8 4.4-1 2.1-1.9 4.8-0.7 1.9-1 2.2-0.5 0.5-1.2 0.5z"/>
			<path id="&lt;Path&gt;" class="s1" d="m-255.4 71.6q-2-0.1-3.8-1.9-3.6-3.6-3.4-9.6 0.3-6.3 4.6-13.7 2.7-3.9 3.8-5.2 0.6-1 1.4-2.3 0.6-0.9 0.7-1 0.2-0.2 0.5-0.2 0.3 0.4 0.2 0.8-0.1 0.2-0.5 0.7-1.1 1.6-2.4 4.1-1.5 2.8-2.4 5.7-2.4 7.8-2.5 13.3 0 5.3 2.2 7.4 0.6 0.6 1.7 0.8 1.2 0.2 1.7-0.3 0.3-0.3 1-1.6 0.7-1.3 1.4-2 1.3-1.3 2.1-0.6 0.5 0.5-0.6 1.6-0.1 0.1-0.3 0.3-0.2 0.1-0.2 0.2 0 0-0.6 0.8-0.5 0.8-1.3 1.5-1.3 1.4-3.3 1.2z"/>
		</g>
		<path id="&lt;Compound Path&gt;" class="s1" d="m-247.6 24.2q3.5-5.5 4.3-11.3 0.7-4.2-0.1-7.5-0.7-3.2-2.5-5-0.8-0.8-2.2-1.2-1.4-0.5-2.6-0.3-1 0.1-1.8 0.9-1.3 1.3-1.9 2.7-0.4 1.2-0.1 1.5 0.1 0.1 0.8-0.2 0.7-0.3 1-0.5 0.2-0.3 0.5-0.9 0.4-0.7 0.6-0.9 1-1.1 2.3-1.1 1.2 0 2.1 0.9 1.6 1.6 1.4 6.3-0.1 5.2-2.3 12.4-1.6 5.4-4.8 11.2-0.4 0.7-0.5 0.9-0.1 0.4 0.2 0.7 0.4 0.4 0.7 0 0.2-0.2 1.5-2.6 1.6-3 3.4-6zm1.8 3.8q1.8-2.2 2.7-3.2 1.6-1.6 2.7-2.9 1.1-1.2 1-1.1 0.9-1 1.2-0.7 0.3 0.4-1.7 3-2.3 3-6.4 7.1l-0.2 0.2q-0.3 0.3-0.9 0.9-0.7 0.6-1 0.9-1.6 1.6-1.2 1.9 0.2 0.2 1-0.4 1.1-0.9 2.2-1.8 5.4-4.5 7-5.7 3.2-2.4 5.4-3.5 2.5-1.2 5.9-2.3 2.3-0.9 2.7-1.2 0.6-0.6 0.6-1.5 0-0.9-0.5-1.5-0.2-0.2-1.2-0.3-1-0.2-1.2-0.4-0.1-0.1 0-1.1 0.4-2.4 0.4-2.6 0.1-1.1 0.1-1.5 0-0.6-0.5-1.1-0.6-0.6-3.3-0.1-1 0.2-2 0.4-0.8 0.1-0.9 0-0.2-0.2-0.4-1.2-0.2-1-0.5-1.3-0.3-0.3-0.9-0.3-0.7 0-1.1 0.4-0.3 0.3-2.4 5.4-3.1 7.3-3.7 8.4-1.7 3.3-4.2 6.2-2.1 2.4-4.1 4.7-1.3 1.7-0.8 2.2 0.3 0.3 3.7-3.1 0.9-1 2.5-2.9zm27.9 0.5q-3.7-3.7-9.7-3.4-6.2 0.2-13.6 4.6-4 2.7-5.3 3.8-1 0.6-2.2 1.4-0.9 0.6-1.1 0.7-0.2 0.2-0.2 0.5 0.5 0.3 0.8 0.2 0.2-0.1 0.7-0.5 1.7-1.1 4.1-2.4 2.9-1.5 5.7-2.4 7.9-2.4 13.3-2.5 5.3 0 7.5 2.2 0.5 0.5 0.7 1.7 0.2 1.2-0.3 1.7-0.3 0.3-1.6 1-1.3 0.7-2 1.4-1.3 1.3-0.6 2 0.5 0.6 1.6-0.5 0.1-0.1 0.3-0.3 0.1-0.2 0.2-0.2 0-0.1 0.8-0.6 0.8-0.6 1.6-1.3 1.3-1.4 1.2-3.4-0.2-2-1.9-3.7zm-36.2-7.2q-0.3-0.1-1.1-0.3-0.1 0-0.3-0.1-0.4-6.4-3-11.6-2-3.7-4.5-6-2.4-2.2-5-2.6-1.1-0.2-2.5 0.3-1.4 0.4-2.3 1.3-0.7 0.7-0.9 1.8-0.3 1.8 0.1 3.3 0.3 1.2 0.8 1.3 0.1 0 0.5-0.7 0.4-0.6 0.5-1 0-0.3-0.1-1-0.1-0.7-0.1-1.1 0.2-1.4 1.2-2.2 1-0.7 2.3-0.5 2.2 0.4 4.8 4.3 2.9 4.3 5.4 11.4 0.4 1.2 0.7 2.5-4.9-1.4-9-3.4-6.8-3.3-10.7-6.7-3.6-3.1-3.7-5.3 0-1.4 0.8-2.2 0.9-0.9 2.3-1 0.4 0 1.1 0.2 0.7 0.2 1 0.2 0.4 0 1.1-0.3 0.7-0.3 0.7-0.5 0-0.5-1.2-0.9-1.4-0.5-3.3-0.4-1.1 0-1.9 0.6-0.9 0.8-1.5 2.2-0.6 1.2-0.6 2.3 0.1 2.7 1.9 5.4 2 2.7 5.5 5.1 4.8 3.3 11.2 4.5 3.4 0.7 6.7 1.6 1 3.7 1.5 8 0.1 0.8 0.1 1 0.2 0.4 0.6 0.5 0.5 0.1 0.6-0.5 0-0.2-0.3-2.9-0.4-2.8-0.7-5.7 1 0.3 1.1 0.3 0.6-0.1 0.5-0.6 0-0.4-0.3-0.6zm34.5 34.5q-0.2 0-0.5 0.7-0.3 0.7-0.3 1.1 0 0.3 0.2 1 0.2 0.7 0.2 1.1-0.1 1.4-1 2.3-0.8 0.8-2.2 0.8-2.2-0.1-5.3-3.7-3.4-3.9-6.7-10.7-1.9-4-3.3-8.8 1.4 0.4 2.7 0.9 7.1 2.4 11.4 5.3 4 2.6 4.3 4.8 0.2 1.4-0.5 2.3-0.7 1-2.2 1.2-0.3 0.1-1 0-0.8-0.2-1.1-0.1-0.4 0-1 0.4-0.7 0.4-0.6 0.6 0 0.5 1.3 0.8 1.4 0.3 3.2 0 1.2-0.2 1.9-0.9 0.8-0.9 1.2-2.3 0.5-1.4 0.3-2.4-0.4-2.6-2.6-5.1-2.2-2.5-6-4.4-5.2-2.7-11.7-3.1-0.1 0-0.2 0 0-0.3-0.1-0.6-0.2-0.8-0.3-1.1-0.2-0.3-0.6-0.3-0.6-0.1-0.6 0.5 0 0.2 0.3 1.4-2.7-0.2-5.4-0.6-2.7-0.4-2.9-0.4-0.5 0.1-0.4 0.7 0 0.4 0.4 0.5 0.2 0.1 1 0.2 4.2 0.5 7.8 1.4 0.9 3.1 1.5 6.4 1.2 6.4 4.5 11.2 2.4 3.5 5.1 5.4 2.7 1.9 5.3 2 1.1 0 2.4-0.6 1.4-0.6 2.2-1.5 0.6-0.8 0.6-1.9 0.1-1.9-0.4-3.3-0.4-1.2-0.9-1.2z"/>
		<path id="&lt;Compound Path&gt;" fill-rule="evenodd" class="s1" d="m-288.1 14.9c-2.6 2.6-2.1 5.4-0.5 8.4 0.5 1-3 1.8-3.6 1.3-5.7-3.6-11.1-7-17.7-7.8q2.1 1.7 4.3 3.3 2.2 1.5 2.4 1.7 0.3 0.5-0.1 0.8-0.3 0.2-0.7 0.1-0.2-0.1-0.9-0.6-4.4-3.3-8.7-5.5h-20.6q0 0.1 0.1 0.1 0.2 0.3 0.8 0.8 0.6 0.4 0.8 0.6 0.2 0.3 0.4 1 0.2 0.8 0.1 0.9-0.4 0.3-1.5-0.4-1.3-0.7-2.4-2.2-0.3-0.4-0.4-0.8h-5.6q2.3 1.8 4.6 3.5 2.2 1.5 2.3 1.7 0.3 0.5-0.1 0.8-0.3 0.2-0.7 0.1-0.2-0.1-0.9-0.6-4.4-3.3-8.7-5.5h-20.6q0.1 0.1 0.1 0.1 0.2 0.3 0.8 0.8 0.6 0.4 0.8 0.6 0.3 0.3 0.5 1 0.2 0.8 0 0.9-0.4 0.3-1.4-0.4-1.3-0.7-2.4-2.2-0.3-0.4-0.5-0.8h-14.6c-2 0-1.7-1.9 0.1-1.9h14.3q0.2-0.8 0.6-1.7 0.6-1.3 1.5-2 2.1-1.6 5.3-1.9 3.4-0.2 7.5 0.9 4.7 1.5 9.1 4.7h7.8q0.1-0.8 0.6-1.7 0.6-1.3 1.5-2 2-1.6 5.3-1.9 3.4-0.2 7.4 0.9 4.8 1.5 9.2 4.7c2.2 0 4.4 0.1 6.6 0.3 4.4 0.6 8.4 2.6 12.2 4.9 0-1.6 0.7-3.2 2.1-4.7 0.8-0.8 4.4-1.3 3.5-0.3zm-78.6-0.2h17.1q-5.3-2.2-9.4-2.9-4.7-0.8-6.5 0.6-1 0.8-1.2 2 0 0.2 0 0.3zm48.9 0q-5.3-2.2-9.4-2.9-4.7-0.8-6.5 0.6-1.1 0.8-1.2 2 0 0.2 0 0.3z"/>
		<path id="&lt;Compound Path&gt;" fill-rule="evenodd" class="s1" d="m-228.3 136.2q1.2 4.1 1 7.5-0.3 3.2-1.9 5.3-0.7 0.9-2 1.5-0.9 0.4-1.7 0.6v14.3c0 1.8-1.9 2.1-1.9 0.1v-14.6q-0.4-0.2-0.8-0.5-1.5-1.1-2.2-2.4-0.7-1-0.4-1.4 0.1-0.2 0.8 0 0.8 0.2 1.1 0.5 0.2 0.2 0.6 0.8 0.4 0.6 0.7 0.8 0.1 0 0.2 0.1v-20.6q-2.2-4.3-5.5-8.7-0.5-0.7-0.6-0.9-0.1-0.4 0.1-0.7 0.3-0.4 0.8-0.1 0.1 0.1 1.7 2.3 1.7 2.3 3.5 4.6v-5.6q-0.4-0.1-0.8-0.4-1.5-1.2-2.2-2.4-0.7-1.1-0.4-1.5 0.1-0.1 0.8 0.1 0.8 0.2 1.1 0.4 0.2 0.2 0.6 0.8 0.4 0.6 0.7 0.8 0.1 0.1 0.2 0.1v-20.6q-2.2-4.3-5.5-8.7-0.5-0.7-0.6-0.9-0.1-0.4 0.1-0.7 0.3-0.4 0.8-0.1 0.1 0.2 1.7 2.3 1.6 2.3 3.3 4.4c-0.8-6.6-4.2-12.1-7.8-17.7-0.5-0.7 0.3-4.1 1.3-3.6 3 1.6 5.8 2.1 8.4-0.5 1-1 0.5 2.7-0.3 3.5-1.5 1.4-3.1 2.1-4.7 2.1 2.3 3.8 4.3 7.8 4.8 12.2 0.3 2.2 0.4 4.4 0.4 6.6q3.2 4.4 4.6 9.2 1.2 4 1 7.4-0.3 3.3-1.9 5.3-0.7 0.9-2 1.5-0.9 0.5-1.7 0.6v7.8q3.2 4.4 4.6 9.1zm-1.7-26.2q-0.7-4.1-2.9-9.4v17.1q0.1 0 0.3 0 1.2-0.1 2-1.2 1.4-1.8 0.6-6.5zm0 31.8q-0.7-4.1-2.9-9.4v17.1q0.1 0 0.3-0.1 1.2-0.1 2-1.2 1.4-1.7 0.6-6.4z"/>
		<g id="&lt;Group&gt;">
			<path id="&lt;Path&gt;" class="s1" d="m227.9 212.7c26.9-6.6 53.8 11.8 80.6 4.2 3.6-1 2.8-2.6-0.8-1.5-12.4 3.5-24.3-1.3-36.6-3.7-14.2-2.9-29.3-4.7-43.5-0.8-3.6 1-3.3 2.7 0.3 1.8z"/>
		</g>
		<g id="&lt;Group&gt;">
			<path id="&lt;Path&gt;" class="s1" d="m357.8 342.6c6.5-26.9-11.9-53.8-4.3-80.6 1-3.6 2.6-2.8 1.6 0.7-3.5 12.5 1.3 24.4 3.7 36.6 2.8 14.3 4.7 29.3 0.8 43.6-1 3.5-2.8 3.2-1.8-0.3z"/>
		</g>
		<g id="&lt;Group&gt;">
			<g id="&lt;Group&gt;">
				<path id="&lt;Path&gt;" class="s1" d="m107.9 235.6c-3 2.3-6.1 6.9-6.9 10.2-0.8 3.6 0.5 7.5 3.3 9.7 3.2 2.6 7.1 0.6 5.3-2-1.9-2.6-3.5-4.4-3.6-7.1 0-3.1 0.5-5.4 3.1-9 1.4-1.9 0.8-3.4-1.2-1.8z"/>
				<path id="&lt;Path&gt;" class="s1" d="m144.9 283.7c3 2.1 6.2 6.3 7.1 9.4 0.9 3.4-0.1 7.2-2.6 9.5-3 2.6-6.8 0.9-5.2-1.7 1.6-2.5 3.1-4.4 3-7-0.1-2.9-0.7-5.1-3.4-8.4-1.4-1.8-0.9-3.2 1.1-1.8z"/>
				<path id="&lt;Path&gt;" class="s1" d="m156.6 283.5c3.4 1.9 8.8 2.9 12.1 2.3 3.6-0.7 6.6-3.4 7.6-6.8 1.1-3.9-2.3-6.7-3.9-4-1.6 2.7-2.7 4.9-5.2 6-2.7 1.3-5.1 1.7-9.3 0.7-2.4-0.6-3.5 0.6-1.3 1.8z"/>
				<path id="&lt;Path&gt;" class="s1" d="m125.6 208.3c-3 2.1-8.1 3.7-11.4 3.4-3.5-0.3-6.7-2.6-7.9-5.7-1.5-3.7 1.5-6.7 3.3-4.3 1.9 2.4 3.1 4.5 5.6 5.3 2.8 0.9 5.1 1 9-0.3 2.2-0.8 3.4 0.2 1.4 1.6z"/>
				<path id="&lt;Path&gt;" class="s1" d="m179.1 224.8c-3.8-10.3-14.5-18.6-24.9-21-10.8-2.5-23.3 1.4-30.9 9.3-5.1 4.4-11 8.1-17.1 10.9-6 2.8-14.2 3.7-19.3-1.3-6.9-6.7 1.3-17.6 9.7-15.4 2 0.6 3.8 2.2 4.6 4 0.9 2.3 0.3 4.5-1.7 6-0.9 0.7-2.6 1.3-4.3 1.4 0.3-0.7 0.4-1.4 0.3-2.2-0.1-2.3-1.7-4.1-3.5-4-1.5 0.2-2.7 1.8-2.8 3.8q-0.1 0.3-0.1 0.7 0.1 0.6 0.3 1.1c0.9 3.7 4.1 5.3 8 4.2 4.7-1.3 6.7-6.4 6-10.8-0.8-4.6-4.4-8.4-9.2-8.5-5-0.2-9.1 3.8-10.5 8.3-1.4 4.6-1.2 10.1 1.6 14.2 2.9 4 8.3 5 12.9 4.7 4.8-0.3 9.2-2.5 13.2-4.8q1.6-0.9 3.1-1.9c-4.4 4.5-9.1 7.5-14.7 9.6-7.5 2.7-17.3 1.8-24.8-1-7.8-2.9-14.1-11.1-13-19.7 0.5-4.2 4.2-6.9 8.3-6.9 2.4-0.1 6.2 1.9 6.2 4.5-1.6-0.7-3.8 0.1-5.1 2.1-1.4 2.2-1.3 4.8 0.3 5.9 1.6 1.1 4.1 0.2 5.6-1.9 2.3-3.2 1.7-8.5-0.3-11.6-2.7-4-7.6-4.9-11.7-2.9-4.5 2.2-5.5 7.8-5.5 12.3 0.1 5.6 2 11 5.2 15.6 6.4 8.9 18.8 10.8 29 9.7 8.1-0.9 15.2-5.3 20.9-11.2-2.1 7.1-2.4 14.8-1 21.5 2.5 11.9 12.8 21.8 24.5 24.5q0.4 0.1 0.8 0.2c4 8.2 12.9 12.8 20.4 17.3 8.5 5.2 21.2 13.7 16.3 25.3-2.1 5-6.5 7.7-11.8 7.8-5.1 0.1-9.3-2.5-11.6-7.1-3.5-6.9 3.7-13.4 9.5-12.6-0.6 1.1-0.7 2.7-0.2 4.3 0.8 2.5 3.1 4 5 3.4 1.7-0.6 2.5-2.7 2.1-5q-0.1-0.4-0.2-0.8c-1.6-4.4-6.1-7.1-10.7-5.6-5 1.5-7.3 6.1-7.9 10.9-0.7 5.6 1.8 11 6.3 14.4 4.2 3.1 10.7 2.7 15.1 0.2 5.1-3 7.2-9.9 7.2-15.4 0-6.3-3.6-11.7-8-15.9-4.6-4.4-10.5-7.6-15.9-10.9-4.4-2.7-9.2-5.8-12.4-9.9 9.1 0.6 19-3.5 23.8-11.2 5.8-9.4 5.6-24.1-3-31.8-7.4-6.7-20.2-6.2-26.3 1.7-3.3 4.2-3.8 10.2-2.9 15.2 0.7 4.2 3.1 7.4 6.6 9.3q1.1 0.7 2.4 1.1c3.6 1 7.1-0.3 7.9-3 0.7-2.7-1.5-5.8-5.1-6.8-2.8-0.8-5.5-0.1-7 1.5-2.4-2.6-3.6-6.3-2.8-10.2 1-5.8 8-8.5 13.2-8.5 5.6 0 11.3 2.2 14.8 6.8 4.3 5.5 5 13.2 2.2 19.6-4.8 11-20.7 13.3-30.9 9.6-12.9-4.8-21.1-17.8-19.9-31.5 0.6-7.6 3.9-15.2 9.5-20.4 5.2-4.8 12.4-7.2 19.3-7.8 7.7-0.6 14.7 1.6 20.9 6 5.1 3.6 10 8.7 12.2 14.6 0.4 1.1 1.5 0.8 1.9 0.1 0.6-1.2 0.3-3.1-0.1-4.1z"/>
			</g>
			<path id="&lt;Path&gt;" class="s1" d="m177 328.2c0 0 0 26.2 0 28.2 0 1.9-2.3 2-2.3-0.2 0-10.9-0.8-11.8-2.5-16.2-2.5-6.1 0.1-7.4 3.3-12.2 0.5-0.8 1.5-0.9 1.5 0.4z"/>
			<path id="&lt;Path&gt;" class="s1" d="m58.7 202c0 0-28.9 0-30.9 0-1.9 0-2 2.3 0.2 2.3 10.9 0 17.8 0.8 22.2 2.5 6 2.4 6.7 0.5 9.2-3.4 0.5-0.8 0.5-1.4-0.7-1.4z"/>
		</g>
		<path id="&lt;Path&gt;" class="s1" d="m-309 207.6h-71.1c-1.6 0-3.5-2.5-0.9-2.5h71.5c0.1 0.6 0.3 1.7 0.5 2.5z"/>
		<path id="&lt;Path&gt;" class="s1" d="m-229.3 287.4v71c0 1.6 2.5 3.5 2.5 0.9v-71.5c-0.7 0-1.7-0.2-2.5-0.4z"/>
		<path id="&lt;Compound Path&gt;" class="s1" d="m-20.3 43.2q-1-0.6-2-1.2-4.3-2.5-9.3-3.2-3.4-0.5-9.5-0.2-8.4 0.2-15.3 1.5-5.4 1.1-6.1 1.7-0.2 0.3-0.5 1.5-0.2 1.1-0.5 1.5-2.7 2.6-6-0.7-3.4-3.5-0.9-6 0.7-0.7 2-1 1.3-0.3 1.5-0.5 1.7-1.7 2.7-15.6 1.1-14.1-3.1-25.5l0.8-0.8q1 0.2 1.9 1.1 1.4 1.3 1.9 3.2 0.6 1.8 0.6 1.9 0.2 0.1 0.3 0.1 0.2 0 0.2 0.1 0.7 0.6 1.2 2.4 1.9 5.8 1.7 9.3-0.5 6.7-1.8 10.7-1.6 5.1-1.4 5.5l0.9-0.6q0.7-0.9 1.6-3.1 1-2.4 2-4.9 2.2-6.9 3.7-11.9 0.7-2.1 1-2.5 0.5-0.4 0.9 0 0.3 0.3-0.1 2.9-0.5 3.1-1.9 7-1 2.9-3.5 8.2-2.2 4.8-2.9 7.2-0.5 1.5-0.4 1.6 0.3 0.2 0.6-0.1 0.1-0.2 0.4-0.6 0.3-0.4 0.5-0.5 3-3.1 7.9-14.4 1.4-3.2 2.8-6.8 0.9-2.5 1.1-2.6 0.5-0.6 1.5-0.7 0.9-0.1 1.3 0.3 0.7 0.6 0.6 2.6-0.2 1.9 0 2.1 0.3 0.3 0.6 0.1 0.2-0.3 0.8-1.1 0.5-0.8 0.9-1.2 0.9-0.9 3.8 1.9 2.4 2.5 1.3 3.7l-1 0.9q-1.2 1.3-0.7 1.8 0.1 0.1 2.3 0 2.2-0.2 3 0.6 1.3 1.2-0.3 2.8-0.1 0.2-3.8 1.4-4.6 1.6-9.3 4-10.9 5.6-12.9 7.7-0.3 0.3-0.1 0.6 0.1 0.1 4.3-1.9 5.7-2.7 11.8-4.6 5.3-1.6 9.8-1.9 3.6-0.2 4.1 0.3 0.2 0.2 0 0.4-0.1 0.1-4.3 1.1-5.3 1.4-10.3 3.3-6.4 2.4-7 2.9-0.3 0.4-0.6 0.8 1.6-0.1 4.6-1.1 3.3-1 4.7-1.2 6.1-1 11.5 0.4 5.1 1.2 8 4.1 0.4 0.4 0.9 1 0.5 0.6 0.6 0.8 0.5 0.5 1.3 1 0.9 0.4 1 0.5 0.3 0.4 0.4 1 0.2 0.6-0.1 0.9-0.6 0.6-1.7 0z"/>
		<path id="&lt;Path&gt;" class="s1" d="m-198.5 2.4h81.2c0.6 0 2.2 0.1 2.3 0.9 0.5 5.9 3.3 10.9 8.7 13.6 0.4 0.2 0.5 0.5 0.4 0.9-3.1 8.1-4.4 16.7 1.5 23.8 7.8 9.4 18.7 1.4 17.5-7.4-1.4 0-2.9-0.6-4.1-1.7-2-2-2.3-5-0.7-6.7 1.7-1.7 4.7-1.5 6.8 0.5q0 0 0 0c5.5 5.2 6.1 14.9-1 19.3-5.9 3.7-12.9 3.6-19.3 0.9-7.3-3.2-9.7-11.5-9.2-18.9 0.3-4.1 3.4-8-0.1-11-3.7-3.3-5.7-7-6.3-11.8h-77.9c-4 0-3.7-2.4 0.2-2.4z"/>
		<path id="&lt;Path&gt;" class="s1" d="m-78.3 12.6c-7.6-6-16.8-7.8-26.1-5.2-3.1 0.9 1 2.2 2.5 1.8 4.3-1.2 9.5-0.8 13.9 1-3.1-0.5-6.2-0.2-8.9 1.4-5 3.1-7.1 9.4-5.4 14.8 0.8 2.3 3 3.6 4.9 2.9 1.9-0.7 2.7-3.1 1.9-5.3-0.5-1.5-1.6-2.5-2.9-2.9 0.6-2.6 1.8-4.9 3.9-6.5 3.8-2.8 8.3-2.7 12.6-0.7q0 0 0 0c1.5 1.4 2.8 3.1 3.6 5 3.8 8.4 1.2 17.4-2 25.5-0.5 1.5-0.5 2.2 1.1 2.2 1.3 0 3.5-0.8 3.8-1.5 4.1-10.6 7.3-24.3-2.9-32.5z"/>
		<path id="&lt;Path&gt;" class="s1" d="m-28.1 172.9v-81.3c0-0.6-0.1-2.2-0.9-2.3-5.9-0.4-10.9-3.3-13.6-8.7-0.2-0.4-0.5-0.5-0.9-0.4-8 3.2-16.7 4.5-23.8-1.4-9.4-7.8-1.4-18.8 7.5-17.6-0.1 1.4 0.5 2.9 1.6 4.1 2 2 5.1 2.3 6.8 0.7 1.7-1.7 1.4-4.7-0.6-6.8q0 0 0 0c-5.2-5.5-14.9-6-19.3 1-3.7 5.9-3.6 13-0.9 19.3 3.3 7.4 11.5 9.8 18.9 9.2 4.2-0.3 8-3.4 11 0.1 3.3 3.7 7 5.7 11.8 6.3v77.9c0 4.1 2.4 3.8 2.4-0.1z"/>
		<path id="&lt;Path&gt;" class="s1" d="m-38.3 52.6c-8.2-10.2-21.9-7-32.4-2.9-0.8 0.3-1.5 2.5-1.6 3.8 0 1.6 0.7 1.7 2.2 1.1 8.1-3.2 17.2-5.8 25.5-2 2 0.9 3.6 2.1 5 3.6q0 0 0 0c2 4.3 2.1 8.8-0.7 12.6-1.5 2.1-3.9 3.4-6.5 3.9-0.3-1.2-1.4-2.4-2.9-2.9-2.2-0.8-4.6 0-5.3 1.9-0.7 1.9 0.6 4.1 2.9 4.9 5.5 1.7 11.8-0.4 14.8-5.4 1.7-2.6 1.9-5.8 1.5-8.9 1.7 4.5 2.1 9.6 0.9 13.9-0.4 1.5 0.9 5.6 1.8 2.5 2.6-9.3 0.8-18.5-5.2-26.1z"/>
		<path id="&lt;Path&gt;" class="s1" d="m-35.1 93.6c0 0 0 25.9 0 27.9 0 1.9-2.4 2.6-2.4-0.2 0-6.8-0.4-16.5-1.1-20.5-0.5-3.1-1.4-6.8-2.3-9.2 1.3 0.5 4.5 1.8 5.8 2z"/>
		<path id="&lt;Path&gt;" class="s1" d="m-119.9 9.1c0 0-25.9 0-27.9 0-1.9 0-2.6 2.4 0.3 2.4 6.7 0 16.4 0.4 20.5 1.1 3.1 0.5 6.8 1.4 9.2 2.3-0.6-1.3-1.8-4.4-2.1-5.8z"/>
		<g id="&lt;Group&gt;">
			<path id="&lt;Path&gt;" class="s1" d="m-287.1 7.9q-37.2 0-74.5 0c-7.5 0-14.2 0-21.7 0-1.4 0-1.2 1.5 0 1.5 24.8 0 50 0 74.9 0q11.2 0 22.5 0c1.9 0-0.3-1.5-1.2-1.5z"/>
		</g>
		<path id="&lt;Path&gt;" class="s1" d="m-227.1 69.7q0 37.2 0 74.4c0 7.5 0 14.3 0 21.8 0 1.3-1.4 1.2-1.4 0 0-24.9 0-50 0-74.9q0-11.2 0-22.5c0-1.9 1.4 0.2 1.4 1.2z"/>
	</g>
</svg>